<?xml version="1.0" encoding="UTF-8" standalone="no"?><!DOCTYPE svg PUBLIC "-//W3C//DTD SVG 1.1//EN" "http://www.w3.org/Graphics/SVG/1.1/DTD/svg11.dtd"><svg width="567px" height="114px" version="1.1" xmlns="http://www.w3.org/2000/svg" xmlns:xlink="http://www.w3.org/1999/xlink" xml:space="preserve" xmlns:serif="http://www.serif.com/" style="fill-rule:evenodd;clip-rule:evenodd;stroke-linejoin:round;stroke-miterlimit:2;"><g transform="matrix(1,0,0,1,-56.693,-56.694)"><g><path d="M115.507,56.703L56.693,56.703L56.693,170.534L74.374,170.534L74.374,74.384L109.673,74.384C112.44,74.384 114.686,76.628 114.686,79.396L114.686,100.876C114.686,103.644 112.44,105.888 109.673,105.888L88.992,105.888L88.992,123.569L115.507,123.569C124.817,123.569 132.366,116.021 132.366,106.71L132.366,73.562C132.366,64.251 124.817,56.703 115.507,56.703Z" style="fill:white;fill-rule:nonzero;"/><path d="M198.21,88.207L157.081,88.207L157.081,105.888L192.378,105.888C195.146,105.888 197.389,108.132 197.389,110.899L197.389,147.841C197.389,150.609 195.146,152.852 192.378,152.852L162.093,152.852C159.325,152.852 157.081,150.609 157.081,147.841L157.081,143.331C157.081,140.563 159.325,138.319 162.093,138.319L182.848,138.319L182.848,120.638L156.259,120.638C146.948,120.638 139.399,128.186 139.399,137.498L139.399,153.675C139.399,162.986 146.948,170.534 156.259,170.534L198.209,170.534C207.521,170.534 215.069,162.985 215.069,153.673L215.069,105.066C215.069,95.755 207.522,88.207 198.21,88.207Z" style="fill:white;fill-rule:nonzero;"/><path d="M546.966,88.207L505.017,88.207C495.702,88.207 488.155,95.756 488.155,105.068L488.155,153.675C488.155,162.986 495.702,170.534 505.015,170.534L560.163,170.534L560.163,152.852L510.847,152.852C508.079,152.852 505.836,150.609 505.836,147.841L505.836,110.899C505.836,108.132 508.079,105.888 510.847,105.888L541.132,105.888C543.899,105.888 546.144,108.132 546.144,110.899L546.144,115.618C546.144,118.386 543.899,120.629 541.132,120.629L520.391,120.629L520.391,138.311L546.966,138.311C556.276,138.311 563.825,130.762 563.825,121.451L563.825,105.066C563.825,95.755 556.276,88.207 546.966,88.207Z" style="fill:white;fill-rule:nonzero;"/><path d="M233.007,105.066L233.007,170.534L250.688,170.534L250.688,110.899C250.688,108.132 252.933,105.888 255.7,105.888L290.792,105.888L290.792,88.207L249.866,88.207C240.556,88.207 233.007,95.755 233.007,105.066Z" style="fill:white;fill-rule:nonzero;"/><path d="M453.614,88.207L394.804,88.207L394.804,170.533L412.484,170.533L412.484,105.888L447.78,105.888C450.548,105.888 452.793,108.132 452.793,110.899L452.793,170.534L470.474,170.534L470.474,105.066C470.474,95.755 462.925,88.207 453.614,88.207Z" style="fill:white;fill-rule:nonzero;"/><path d="M599.188,56.703L581.507,56.703L581.507,170.534L599.188,170.534L599.188,105.89L623.622,105.89L623.622,88.209L599.188,88.209L599.188,56.703Z" style="fill:white;fill-rule:nonzero;"/><path d="M384.153,88.199L359.149,88.199L326.154,121.195L326.154,56.694L308.473,56.694L308.473,170.525L326.154,170.525L326.154,138.019L358.669,170.534L383.674,170.534L343.454,130.316C343.063,129.924 343.063,129.29 343.454,128.898L384.153,88.199Z" style="fill:white;fill-rule:nonzero;"/></g></g></svg>