<?xml version="1.0" encoding="utf-8"?>
<!-- Generator: Adobe Illustrator 26.3.1, SVG Export Plug-In . SVG Version: 6.00 Build 0)  -->
<svg version="1.1" id="Layer_1" xmlns="http://www.w3.org/2000/svg" xmlns:xlink="http://www.w3.org/1999/xlink" x="0px" y="0px"
	 viewBox="0 0 600 149" style="enable-background:new 0 0 600 149;" xml:space="preserve">
<style type="text/css">
	.st0{fill:#FFFFFF;}
</style>
<g>
	<path class="st0" d="M254.5,54.3L232.4,81c-0.8,1-1.2,1-2.1,0l-22.2-26.6c-0.3-0.4-0.5-0.3-0.5,0v55.5c0,1.1-0.9,2.1-2,2.1h-6.1
		c-1.1,0-2-1-2-2.1V40.1c0-1.1,0.9-2.1,2-2.1h6.5c0.8,0,1.5,0.5,2.2,1.3l22.5,27.9c0.7,0.9,0.9,0.8,1.4,0l22.8-28
		c0.5-0.7,1.4-1.2,2.2-1.2h6c1.1,0,2.1,1,2.1,2.1v69.8c0,1.1-0.9,2.1-2,2.1H257c-1.1,0-2-1-2-2.1V54.3
		C255.1,54,254.9,53.9,254.5,54.3z"/>
	<path class="st0" d="M346.3,111.9c-1.2,0-1.8-0.5-2.5-2.1l-5.6-13.3c-0.4-1-0.9-1.2-2.1-1.2h-34.7c-1,0-1.6,0.5-2.1,1.5l-5.6,13.3
		c-0.5,1.2-1.5,1.7-2.7,1.7h-6.3c-1.3,0-2.1-1.2-1.4-2.7l30.6-69.4c0.5-1.3,1.6-1.7,2.9-1.7h5.6c1.1,0,1.6,0.9,2.1,1.8l30.1,69.4
		c0.4,1.1-0.1,2.6-1.5,2.6H346.3z M319.2,52.1c-0.2-0.4-0.4-0.4-0.7,0l-14.5,33.7c-0.3,0.9,0.1,1.3,0.9,1.3h27.8
		c0.7,0,1.1-0.5,0.8-1.3L319.2,52.1z"/>
	<path class="st0" d="M428.5,111.9c-0.8,0-1.4-0.4-2.1-1.3l-42.5-57c-0.3-0.4-0.5-0.4-0.5,0l0.1,56.3c0,1.1-0.9,2.1-2,2.1h-5.8
		c-1.1,0-2-1-2-2.1V40.1c0-1.1,0.9-2.1,2-2.1h6.7c0.9,0,1.5,0.4,2.3,1.4l42.3,55.7c0.2,0.3,0.4,0.3,0.4-0.1l-0.1-55
		c0-1.1,0.9-2.1,2-2.1h5.8c1.1,0,2,1,2,2.1v69.8c0,1.1-1,2.1-2.1,2.1H428.5z"/>
	<path class="st0" d="M512.7,111.9c-1,0-1.7-0.7-2.3-1.4l-16.1-26c-0.5-1-1.1-1.6-2.1-1.6h-15.4c-1.2,0-2,0.9-2,2.1v24.9
		c0,1.1-0.9,2.1-2,2.1h-6.3c-1.1,0-2-1-2-2.1V40.1c0-1.1,0.9-2.1,2-2.1h28.5c14,0,26.1,5.4,26.1,22.1c0,12.3-8.1,18-14.6,20.8
		c-1.3,0.5-2.2,1.2-1.3,2.7l16.1,25.5c1,1.5,0.2,2.8-1.1,2.8H512.7z M497.8,74.1c6.1,0,12.5-5,12.5-13.6c0-8-5.8-13.5-13.8-13.5
		h-19.7c-1.2,0-2,0.9-2,2v23c0,1.1,0.8,2.1,2,2.1H497.8z"/>
	<path class="st0" d="M590.2,59.7c-1.1,0-1.6-0.4-2-1.5c-2.7-7.5-9.5-11.8-19.4-11.8c-10.8,0-17.9,4.1-17.9,10.6
		c0,7.7,9.6,9.8,20.8,11.6c13.8,2.5,28.4,6.2,28.4,21.8c0,15.4-14.1,22.4-29.9,22.4c-14.1,0-27.7-5.8-29.9-20.8
		c-0.2-1.3,0.4-1.8,1.7-1.8h6.8c1.2,0,1.7,0.4,2,1.4c2,7.5,9.9,12.1,20.1,12.1c9.9,0,18.6-4,18.6-12.4c0-9.8-11.3-11.8-21.5-13.5
		c-13.7-2.2-27.3-5.3-27.3-19.4c0-13.4,12.4-21.2,29-21.2c14.9,0,27.1,7.2,29.2,20.5c0.2,1.2-0.1,2-1.4,2H590.2z"/>
</g>
<path class="st0" d="M129.3,38L129.3,38c-0.6-1.3-1.6-2.5-2.7-3.1L68.4,1.3c-0.8-0.5-1.9-0.7-3-0.8c-0.1,0-0.3,0-0.4,0
	c-1.2,0-2.4,0.3-3.4,0.8L3.4,34.9c-0.9,0.5-1.8,1.5-2.4,2.5l0,0c-0.6,1.1-1,2.3-1,3.3V108c0,1.1,0.4,2.3,1,3.3l0,0
	c0.6,1.1,1.5,2,2.4,2.5l58.3,33.6c0.8,0.4,1.7,0.7,2.7,0.8c0.2,0,0.5,0,0.7,0c1.2,0,2.4-0.3,3.4-0.8l58.3-33.6
	c0.1-0.1,0.2-0.1,0.3-0.2c0.2-0.1,0.4-0.3,0.6-0.4c0.4-0.4,0.8-0.8,1.2-1.3h0c0.8-1.2,1.4-2.6,1.4-3.9V40.8
	C130,39.9,129.8,38.9,129.3,38z M126,108c0,0.3-0.2,0.8-0.6,1.5l-0.1,0.1c-0.1,0.1-0.1,0.2-0.2,0.3H72.5l26-15c0,0,0,0,0,0l0,0
	c0,0,0,0,0,0c0,0,0,0,0,0c0.1-0.1,0.2-0.1,0.2-0.2c0,0,0,0,0,0c0,0,0,0,0,0c0.1-0.1,0.2-0.2,0.2-0.2c0,0,0,0,0,0c0,0,0,0,0,0
	c0-0.1,0.1-0.1,0.1-0.2L126,47.8V108z M4,41.5l57,32.9L4,107.3V41.5z M65,76.7l28.5,16.5L65,109.6L36.5,93.2L65,76.7z M31.8,95.9
	l25.8,44.6L6,110.8L31.8,95.9z M125.7,39.8L125.7,39.8c0.1,0.2,0.1,0.2,0.1,0.3c0,0,0,0,0,0L98,88.4L69.7,6.6l55,31.7
	C124.9,38.5,125.4,39,125.7,39.8z M63.6,4.7c0.1-0.1,0.5-0.2,1-0.2l29.2,84.2L6,38L63.6,4.7z M66.4,144c-0.2,0.1-0.6,0.3-1.4,0.3
	c-0.1,0-0.2,0-0.4,0c-0.1,0-0.2,0-0.3,0L38,98.6l26,15c0,0,0,0,0,0c0.1,0,0.1,0.1,0.2,0.1c0,0,0,0,0,0c0,0,0,0,0,0c0,0,0,0,0,0
	c0,0,0.1,0,0.1,0c0.1,0,0.2,0.1,0.2,0.1c0,0,0,0,0.1,0c0.1,0,0.2,0,0.4,0c0,0,0,0,0,0s0,0,0,0c0,0,0,0,0,0h53.5L66.4,144z"/>
</svg>
