<svg xmlns="http://www.w3.org/2000/svg" viewBox="0 0 600 147.83"><defs><style>.cls-1{fill:#3a82e4;}.cls-2{fill:#284da0;}.cls-3{fill:#24366e;}.cls-4{fill:#fff;}.cls-5{fill:#0c1c2c;}</style></defs><g id="Layer_2" data-name="Layer 2"><g id="Layer_1-2" data-name="Layer 1"><path class="cls-1" d="M97.52,92.68,65.42,0a7.12,7.12,0,0,0-3.79.78L3.38,34.43A6.84,6.84,0,0,0,1,37l64,37Z"/><path class="cls-2" d="M129.34,37.56a7.18,7.18,0,0,0-2.69-3.13L68.39.79a6.77,6.77,0,0,0-3-.78l32.1,92.67Z"/><path class="cls-3" d="M130,40.28v67.27a7.24,7.24,0,0,1-1.36,3.9H65L97.52,92.68l31.82-55.12A6.61,6.61,0,0,1,130,40.28Z"/><path class="cls-3" d="M65,73.91,32.51,92.68,1,110.88a7,7,0,0,1-1-3.33V40.28A7,7,0,0,1,1,37Z"/><path class="cls-1" d="M32.5,92.68,64.33,147.8a7.17,7.17,0,0,0,4.06-.77l58.26-33.63a6.75,6.75,0,0,0,2-2H65Z"/><path class="cls-2" d="M1,110.87a7,7,0,0,0,2.39,2.53L61.63,147a6.49,6.49,0,0,0,2.7.77L32.5,92.68Z"/><polygon class="cls-4" points="32.51 92.68 65.01 111.45 97.52 92.68 65.01 73.91 32.51 92.68"/><path class="cls-5" d="M254.53,53.86,232.36,80.48c-.76,1-1.19,1-2.06,0L208.13,53.86c-.32-.44-.54-.33-.54,0v55.52a2,2,0,0,1-2,2.07h-6.08a2,2,0,0,1-2-2.07V39.63a2,2,0,0,1,2-2.07h6.52a3.1,3.1,0,0,1,2.17,1.31l22.49,27.92c.65.87.87.76,1.41,0l22.82-28a3.12,3.12,0,0,1,2.17-1.2h6a2.13,2.13,0,0,1,2.06,2.07v69.75a2,2,0,0,1-1.95,2.07H257a2,2,0,0,1-2-2.07V53.86C255.07,53.53,254.85,53.42,254.53,53.86Z"/><path class="cls-5" d="M346.26,111.45c-1.19,0-1.84-.55-2.5-2.07l-5.65-13.25c-.43-1-.86-1.2-2.06-1.2H301.39a2.17,2.17,0,0,0-2.06,1.52l-5.65,13.26a2.83,2.83,0,0,1-2.72,1.74h-6.3c-1.31,0-2.07-1.2-1.42-2.72L313.89,39.3a2.85,2.85,0,0,1,2.93-1.74h5.65c1.09,0,1.63.87,2.06,1.85l30.1,69.43a1.83,1.83,0,0,1-1.52,2.61ZM319.21,51.58c-.22-.44-.44-.44-.65,0L304.11,85.26c-.33.87.1,1.3.87,1.3h27.81a.84.84,0,0,0,.76-1.3Z"/><path class="cls-5" d="M428.51,111.45a2.62,2.62,0,0,1-2.06-1.31L384,53.1c-.33-.44-.55-.44-.55,0l.11,56.28a2,2,0,0,1-1.95,2.07h-5.76a2,2,0,0,1-2-2.07V39.63a2,2,0,0,1,2-2.07h6.73A2.85,2.85,0,0,1,384.83,39L427.1,94.71c.22.33.44.33.44-.11l-.11-55a2,2,0,0,1,1.95-2.07h5.76a2,2,0,0,1,2,2.07v69.75a2.14,2.14,0,0,1-2.07,2.07Z"/><path class="cls-5" d="M512.68,111.45A2.9,2.9,0,0,1,510.4,110l-16.08-26c-.55-1-1.09-1.63-2.07-1.63H476.82a1.9,1.9,0,0,0-1.95,2.06v24.88a2,2,0,0,1-2,2.07h-6.3a2,2,0,0,1-1.95-2.07V39.63a2,2,0,0,1,1.95-2.07h28.47c14,0,26.07,5.43,26.07,22.06,0,12.28-8.14,18-14.55,20.75-1.31.54-2.18,1.2-1.31,2.72l16.08,25.53c1,1.52.22,2.83-1.08,2.83ZM497.79,73.63c6.09,0,12.5-5,12.5-13.58,0-8-5.76-13.47-13.8-13.47H476.82a1.88,1.88,0,0,0-1.95,2v23a2,2,0,0,0,1.95,2.06Z"/><path class="cls-5" d="M590.22,59.18a1.78,1.78,0,0,1-2-1.52c-2.72-7.49-9.46-11.84-19.45-11.84-10.76,0-17.93,4.13-17.93,10.65,0,7.71,9.56,9.78,20.75,11.62,13.8,2.5,28.36,6.2,28.36,21.84,0,15.43-14.12,22.39-29.88,22.39-14.12,0-27.71-5.76-29.88-20.76-.22-1.3.44-1.84,1.74-1.84h6.84c1.2,0,1.74.43,2,1.41,2,7.49,9.89,12.06,20.1,12.06,9.89,0,18.58-4,18.58-12.39C589.46,81,578.16,79,568,77.33c-13.69-2.17-27.27-5.33-27.27-19.45,0-13.36,12.38-21.19,29-21.19,14.88,0,27,7.17,29.22,20.54.22,1.19-.11,2-1.41,2Z"/></g></g></svg>