<?xml version="1.0" encoding="UTF-8" standalone="no"?><!DOCTYPE svg PUBLIC "-//W3C//DTD SVG 1.1//EN" "http://www.w3.org/Graphics/SVG/1.1/DTD/svg11.dtd"><svg width="6497px" height="856px" version="1.1" xmlns="http://www.w3.org/2000/svg" xmlns:xlink="http://www.w3.org/1999/xlink" xml:space="preserve" xmlns:serif="http://www.serif.com/" style="fill-rule:evenodd;clip-rule:evenodd;stroke-miterlimit:10;"><g transform="matrix(21.3013,0,0,9.32598,876.695,427.542)"><path d="M0,0L262.356,0" style="fill:none;fill-rule:nonzero;stroke:#000;stroke-opacity:0.94;stroke-width:0.38px;"/></g><g transform="matrix(1.65982,0,0,1.65982,-740.906,-157.585)"><g transform="matrix(180.743,0,0,180.743,960.799,557.92)"><path d="M0.076,-0.717L0.171,-0.717L0.171,-0.368L0.521,-0.717L0.655,-0.717L0.356,-0.428L0.663,-0L0.537,-0L0.286,-0.36L0.171,-0.25L0.171,-0L0.076,-0L0.076,-0.717Z" style="fill-rule:nonzero;"/></g><g transform="matrix(180.743,0,0,180.743,1081.35,557.92)"><path d="M0.413,-0.412C0.404,-0.426 0.389,-0.437 0.369,-0.447C0.349,-0.457 0.326,-0.461 0.302,-0.461C0.255,-0.461 0.217,-0.442 0.188,-0.402C0.16,-0.363 0.146,-0.312 0.146,-0.25C0.146,-0.226 0.148,-0.204 0.153,-0.182C0.156,-0.17 0.161,-0.155 0.167,-0.136L0.413,-0.412ZM0.189,-0.104C0.205,-0.085 0.223,-0.073 0.241,-0.066C0.26,-0.06 0.279,-0.057 0.298,-0.057C0.359,-0.057 0.403,-0.086 0.429,-0.144C0.444,-0.178 0.452,-0.218 0.452,-0.264C0.452,-0.293 0.45,-0.318 0.445,-0.339C0.442,-0.351 0.438,-0.364 0.432,-0.379L0.189,-0.104ZM0.045,-0.002L0.107,-0.068C0.091,-0.092 0.079,-0.119 0.07,-0.149C0.061,-0.179 0.057,-0.214 0.057,-0.255C0.057,-0.329 0.077,-0.395 0.118,-0.452C0.16,-0.51 0.22,-0.539 0.298,-0.539C0.339,-0.539 0.375,-0.531 0.406,-0.516C0.424,-0.507 0.445,-0.493 0.469,-0.473L0.53,-0.542L0.555,-0.518L0.493,-0.448C0.513,-0.418 0.528,-0.383 0.537,-0.345C0.542,-0.32 0.545,-0.295 0.545,-0.27C0.545,-0.186 0.522,-0.116 0.477,-0.062C0.432,-0.007 0.372,0.02 0.296,0.02C0.261,0.02 0.229,0.015 0.201,0.004C0.173,-0.006 0.15,-0.021 0.133,-0.039L0.074,0.023L0.045,-0.002Z" style="fill-rule:nonzero;"/></g><g transform="matrix(180.743,0,0,180.743,1191.76,557.92)"><path d="M0.058,-0.72L0.143,-0.72L0.143,-0.459C0.162,-0.485 0.185,-0.504 0.212,-0.517C0.239,-0.53 0.268,-0.537 0.299,-0.537C0.364,-0.537 0.417,-0.514 0.457,-0.469C0.498,-0.425 0.518,-0.359 0.518,-0.271C0.518,-0.189 0.498,-0.12 0.458,-0.065C0.418,-0.011 0.362,0.017 0.292,0.017C0.252,0.017 0.218,0.007 0.191,-0.012C0.175,-0.024 0.157,-0.042 0.139,-0.067L0.139,-0L0.058,-0L0.058,-0.72ZM0.286,-0.061C0.334,-0.061 0.369,-0.08 0.393,-0.118C0.416,-0.155 0.428,-0.205 0.428,-0.267C0.428,-0.322 0.416,-0.368 0.393,-0.404C0.369,-0.44 0.334,-0.458 0.289,-0.458C0.249,-0.458 0.213,-0.443 0.183,-0.414C0.153,-0.384 0.138,-0.335 0.138,-0.267C0.138,-0.218 0.144,-0.178 0.157,-0.147C0.18,-0.09 0.223,-0.061 0.286,-0.061Z" style="fill-rule:nonzero;"/></g><g transform="matrix(180.743,0,0,180.743,1292.28,557.92)"><path d="M0.282,-0.535C0.319,-0.535 0.355,-0.526 0.39,-0.509C0.425,-0.491 0.451,-0.469 0.47,-0.441C0.487,-0.415 0.499,-0.384 0.505,-0.349C0.51,-0.325 0.513,-0.286 0.513,-0.233L0.129,-0.233C0.131,-0.18 0.144,-0.138 0.167,-0.106C0.19,-0.074 0.227,-0.058 0.276,-0.058C0.322,-0.058 0.358,-0.073 0.386,-0.103C0.401,-0.121 0.412,-0.141 0.419,-0.164L0.505,-0.164C0.503,-0.145 0.496,-0.123 0.483,-0.1C0.47,-0.076 0.455,-0.057 0.439,-0.042C0.413,-0.016 0.38,0.002 0.34,0.011C0.319,0.016 0.295,0.019 0.269,0.019C0.203,0.019 0.148,-0.005 0.103,-0.052C0.058,-0.1 0.035,-0.166 0.035,-0.251C0.035,-0.335 0.058,-0.404 0.104,-0.456C0.149,-0.508 0.209,-0.535 0.282,-0.535ZM0.422,-0.303C0.419,-0.341 0.41,-0.372 0.397,-0.395C0.373,-0.437 0.333,-0.458 0.277,-0.458C0.236,-0.458 0.203,-0.443 0.175,-0.414C0.148,-0.385 0.133,-0.348 0.132,-0.303L0.422,-0.303Z" style="fill-rule:nonzero;"/></g><g transform="matrix(180.743,0,0,180.743,1392.8,557.92)"><path d="M0.064,-0.523L0.148,-0.523L0.148,-0.449C0.173,-0.479 0.199,-0.501 0.227,-0.515C0.254,-0.528 0.285,-0.535 0.319,-0.535C0.393,-0.535 0.443,-0.509 0.469,-0.457C0.484,-0.429 0.491,-0.388 0.491,-0.335L0.491,-0L0.401,-0L0.401,-0.33C0.401,-0.361 0.397,-0.387 0.387,-0.407C0.372,-0.439 0.343,-0.456 0.302,-0.456C0.281,-0.456 0.264,-0.453 0.251,-0.449C0.227,-0.442 0.206,-0.428 0.188,-0.406C0.173,-0.389 0.163,-0.371 0.159,-0.353C0.155,-0.334 0.152,-0.308 0.152,-0.274L0.152,-0L0.064,-0L0.064,-0.523Z" style="fill-rule:nonzero;"/></g><g transform="matrix(180.743,0,0,180.743,1493.32,557.92)"><path d="M0.064,-0.72L0.152,-0.72L0.152,-0.452C0.173,-0.479 0.192,-0.497 0.208,-0.508C0.237,-0.526 0.272,-0.536 0.314,-0.536C0.39,-0.536 0.442,-0.509 0.469,-0.456C0.483,-0.427 0.491,-0.387 0.491,-0.335L0.491,-0L0.4,-0L0.4,-0.33C0.4,-0.368 0.396,-0.396 0.386,-0.414C0.37,-0.443 0.34,-0.457 0.296,-0.457C0.259,-0.457 0.226,-0.444 0.197,-0.419C0.167,-0.394 0.152,-0.347 0.152,-0.277L0.152,-0L0.064,-0L0.064,-0.72Z" style="fill-rule:nonzero;"/></g><g transform="matrix(180.743,0,0,180.743,1593.84,557.92)"><path d="M0.132,-0.139C0.132,-0.114 0.141,-0.094 0.16,-0.079C0.178,-0.064 0.2,-0.057 0.226,-0.057C0.257,-0.057 0.286,-0.064 0.315,-0.079C0.364,-0.102 0.389,-0.141 0.389,-0.195L0.389,-0.266C0.378,-0.259 0.364,-0.254 0.347,-0.249C0.33,-0.244 0.314,-0.241 0.297,-0.239L0.244,-0.232C0.212,-0.228 0.188,-0.222 0.172,-0.212C0.145,-0.197 0.132,-0.173 0.132,-0.139ZM0.345,-0.317C0.365,-0.319 0.378,-0.328 0.385,-0.342C0.389,-0.35 0.391,-0.361 0.391,-0.376C0.391,-0.406 0.38,-0.428 0.359,-0.441C0.338,-0.455 0.307,-0.461 0.268,-0.461C0.222,-0.461 0.189,-0.449 0.17,-0.424C0.159,-0.411 0.152,-0.39 0.149,-0.363L0.067,-0.363C0.069,-0.428 0.089,-0.473 0.13,-0.498C0.17,-0.523 0.216,-0.536 0.27,-0.536C0.331,-0.536 0.381,-0.524 0.419,-0.5C0.458,-0.477 0.477,-0.441 0.477,-0.391L0.477,-0.09C0.477,-0.081 0.478,-0.073 0.482,-0.068C0.486,-0.062 0.494,-0.06 0.506,-0.06C0.51,-0.06 0.514,-0.06 0.519,-0.06C0.524,-0.061 0.529,-0.062 0.535,-0.063L0.535,0.002C0.521,0.006 0.511,0.009 0.503,0.01C0.496,0.011 0.486,0.011 0.474,0.011C0.444,0.011 0.422,0 0.408,-0.021C0.401,-0.032 0.396,-0.049 0.393,-0.069C0.375,-0.046 0.349,-0.026 0.316,-0.008C0.282,0.009 0.245,0.018 0.205,0.018C0.157,0.018 0.117,0.003 0.086,-0.027C0.055,-0.056 0.04,-0.093 0.04,-0.137C0.04,-0.186 0.055,-0.223 0.085,-0.25C0.116,-0.277 0.155,-0.293 0.205,-0.299L0.345,-0.317Z" style="fill-rule:nonzero;"/></g><g transform="matrix(180.743,0,0,180.743,1694.36,557.92)"><path d="M0.107,-0.523L0.247,-0.097L0.393,-0.523L0.489,-0.523L0.292,-0L0.198,-0L0.005,-0.523L0.107,-0.523Z" style="fill-rule:nonzero;"/></g><g transform="matrix(180.743,0,0,180.743,1784.73,557.92)"><path d="M0.064,-0.523L0.148,-0.523L0.148,-0.449C0.173,-0.479 0.199,-0.501 0.227,-0.515C0.254,-0.528 0.285,-0.535 0.319,-0.535C0.393,-0.535 0.443,-0.509 0.469,-0.457C0.484,-0.429 0.491,-0.388 0.491,-0.335L0.491,-0L0.401,-0L0.401,-0.33C0.401,-0.361 0.397,-0.387 0.387,-0.407C0.372,-0.439 0.343,-0.456 0.302,-0.456C0.281,-0.456 0.264,-0.453 0.251,-0.449C0.227,-0.442 0.206,-0.428 0.188,-0.406C0.173,-0.389 0.163,-0.371 0.159,-0.353C0.155,-0.334 0.152,-0.308 0.152,-0.274L0.152,-0L0.064,-0L0.064,-0.523Z" style="fill-rule:nonzero;"/></g></g><g transform="matrix(2.23823,0,0,2.23823,4528.85,-2644.87)"><g transform="matrix(4.16667,0,0,4.16667,67.4196,1296.53)"><path d="M0,-21.486L-2.863,-21.486L-2.863,-26.361L14.96,-26.361C17.076,-26.361 17.951,-25.441 17.951,-23.373L17.951,-18.627L12.76,-18.627L12.76,-20.515C12.76,-21.132 12.407,-21.486 11.791,-21.486L5.767,-21.486L5.767,-12.638L15.75,-12.638L15.75,-7.757L5.767,-7.757L5.767,4.875L0,4.875L0,-21.486Z" style="fill-rule:nonzero;"/></g><g transform="matrix(4.16667,0,0,4.16667,201.809,1240.92)"><path d="M0,14C3.648,14 6.685,11.184 6.685,7.002C6.685,2.857 3.648,0 0,0C-3.615,0 -6.651,2.857 -6.651,7.002C-6.651,11.184 -3.615,14 0,14M0,-4.75C6.859,-4.75 12.32,0.135 12.32,7.002C12.32,13.91 6.859,18.75 0,18.75C-6.822,18.75 -12.274,13.91 -12.274,7.002C-12.274,0.135 -6.822,-4.75 0,-4.75" style="fill-rule:nonzero;"/></g><g transform="matrix(4.16667,0,0,4.16667,274.184,1291.74)"><path d="M0,-10.702C0,-11.356 -0.347,-11.663 -0.972,-11.663L-2.727,-11.663L-2.727,-16.417L2.385,-16.417C4.359,-16.417 5.378,-15.579 5.378,-13.69L5.378,-12.374C5.378,-11.528 5.28,-10.958 5.28,-10.958L5.378,-10.958C6.385,-14.171 9.066,-16.727 12.504,-16.727C12.985,-16.727 13.507,-16.636 13.507,-16.636L13.507,-11.141C13.507,-11.141 12.935,-11.227 12.147,-11.227C9.772,-11.227 7.046,-9.864 6.028,-6.518C5.725,-5.411 5.546,-4.19 5.546,-2.862L5.546,6.025L0,6.025L0,-10.702Z" style="fill-rule:nonzero;"/></g><g transform="matrix(4.16667,0,0,4.16667,401.988,1282.17)"><path d="M0,-5.8C-0.091,-8.491 -1.939,-10.337 -4.221,-10.337C-7.085,-10.337 -9.112,-8.618 -9.726,-5.8L0,-5.8ZM-4.221,-14.65C2.201,-14.65 5.725,-9.945 5.725,-4.003C5.725,-3.339 5.593,-1.927 5.593,-1.927L-9.905,-1.927C-9.46,2.022 -6.559,4.1 -3.167,4.1C0.435,4.1 3.127,1.595 3.127,1.595L5.46,5.462C5.46,5.462 2.022,8.85 -3.566,8.85C-11,8.85 -15.62,3.485 -15.62,-2.898C-15.62,-9.812 -10.959,-14.65 -4.221,-14.65" style="fill-rule:nonzero;"/></g><g transform="matrix(4.16667,0,0,4.16667,448.358,1290.82)"><path d="M0,-10.481C0,-11.135 -0.348,-11.442 -0.967,-11.442L-2.732,-11.442L-2.732,-16.196L2.425,-16.196C4.4,-16.196 5.372,-15.27 5.372,-13.688L5.372,-13.03C5.372,-12.544 5.28,-12.063 5.28,-12.063L5.372,-12.063C6.344,-13.95 8.759,-16.727 13.292,-16.727C18.26,-16.727 21.12,-14.133 21.12,-8.19L21.12,0.57C21.12,1.185 21.479,1.533 22.092,1.533L23.853,1.533L23.853,6.246L18.521,6.246C16.418,6.246 15.534,5.365 15.534,3.251L15.534,-7.043C15.534,-9.774 14.827,-11.622 12.013,-11.622C9.015,-11.622 6.779,-9.723 5.986,-7.043C5.674,-6.122 5.546,-5.108 5.546,-4.055L5.546,6.246L0,6.246L0,-10.481Z" style="fill-rule:nonzero;"/></g><g transform="matrix(4.16667,0,0,4.16667,0,462.908)"><path d="M136.34,173.709L141.174,173.709L141.174,178.857L136.34,178.857L136.34,173.709ZM136.074,188.218C136.074,187.564 135.726,187.258 135.102,187.258L133.342,187.258L133.342,182.504L138.673,182.504C140.735,182.504 141.621,183.429 141.621,185.498L141.621,199.269C141.621,199.884 141.967,200.232 142.587,200.232L144.352,200.232L144.352,204.945L139.021,204.945C136.954,204.945 136.074,204.064 136.074,201.951L136.074,188.218Z" style="fill-rule:nonzero;"/></g><g transform="matrix(4.16667,0,0,4.16667,621.057,1290.82)"><path d="M0,-10.481C0,-11.135 -0.353,-11.442 -0.967,-11.442L-2.732,-11.442L-2.732,-16.196L2.42,-16.196C4.396,-16.196 5.362,-15.27 5.362,-13.688L5.362,-13.03C5.362,-12.544 5.281,-12.063 5.281,-12.063L5.362,-12.063C6.33,-13.95 8.75,-16.727 13.292,-16.727C18.267,-16.727 21.121,-14.133 21.121,-8.19L21.121,0.57C21.121,1.185 21.474,1.533 22.093,1.533L23.854,1.533L23.854,6.246L18.527,6.246C16.415,6.246 15.544,5.365 15.544,3.251L15.544,-7.043C15.544,-9.774 14.834,-11.622 12.013,-11.622C9.017,-11.622 6.773,-9.723 5.982,-7.043C5.675,-6.122 5.541,-5.108 5.541,-4.055L5.541,6.246L0,6.246L0,-10.481Z" style="fill-rule:nonzero;"/></g><g transform="matrix(4.16667,0,0,4.16667,798.368,1308.57)"><path d="M0,-9.763C0,-14.874 -2.555,-16.238 -5.592,-16.238C-8.98,-16.238 -10.827,-13.769 -10.827,-9.988C-10.827,-6.07 -8.847,-3.161 -5.239,-3.161C-2.555,-3.161 0,-4.704 0,-9.763M-6.555,-20.988C-1.366,-20.988 0.348,-17.812 0.348,-17.812L0.434,-17.812L0.434,-18.394C0.434,-19.396 1.141,-20.456 2.9,-20.456L8.094,-20.456L8.094,-15.702L6.38,-15.702C5.807,-15.702 5.413,-15.396 5.413,-14.829L5.413,0.618C5.413,8.315 -0.58,11.225 -6.427,11.225C-9.247,11.225 -12.244,10.432 -14.395,9.286L-12.674,4.885C-12.674,4.885 -9.911,6.383 -6.468,6.383C-3.087,6.383 -0.135,4.932 -0.135,0.883L-0.135,-0.175C-0.135,-0.702 -0.099,-1.363 -0.099,-1.363L-0.179,-1.363C-1.5,0.538 -3.439,1.544 -6.427,1.544C-12.853,1.544 -16.507,-3.65 -16.507,-9.808C-16.507,-15.968 -13.026,-20.988 -6.555,-20.988" style="fill-rule:nonzero;"/></g></g><g transform="matrix(2.23823,0,0,2.23823,2013.22,-2152.46)"><g transform="matrix(4.16667,0,0,4.16667,124.08,986.855)"><path d="M0,21.561C5.639,21.561 10.177,16.807 10.177,10.561C10.177,4.577 5.639,-0 0,-0C-5.628,-0 -10.161,4.577 -10.161,10.561C-10.161,16.807 -5.628,21.561 0,21.561M0,-5.367C9.203,-5.367 16.156,1.625 16.156,10.561C16.156,19.758 9.203,26.928 0,26.928C-9.188,26.928 -16.145,19.758 -16.145,10.561C-16.145,1.625 -9.188,-5.367 0,-5.367" style="fill-rule:nonzero;"/></g><g transform="matrix(4.16667,0,0,4.16667,216.39,1071.72)"><path d="M0,-10.682C0,-11.348 -0.352,-11.661 -0.967,-11.661L-2.724,-11.661L-2.724,-16.409L2.375,-16.409C4.357,-16.409 5.37,-15.569 5.37,-13.676L5.37,-12.362C5.37,-11.53 5.275,-10.953 5.275,-10.953L5.37,-10.953C6.375,-14.161 9.064,-16.715 12.5,-16.715C12.985,-16.715 13.513,-16.627 13.513,-16.627L13.513,-11.127C13.513,-11.127 12.929,-11.219 12.147,-11.219C9.768,-11.219 7.038,-9.848 6.027,-6.512C5.723,-5.412 5.542,-4.176 5.542,-2.86L5.542,6.033L0,6.033L0,-10.682Z" style="fill-rule:nonzero;"/></g><g transform="matrix(4.16667,0,0,4.16667,294.033,1070.8)"><path d="M0,-10.461C0,-11.127 -0.354,-11.44 -0.967,-11.44L-2.731,-11.44L-2.731,-16.188L2.42,-16.188C4.395,-16.188 5.367,-15.262 5.367,-13.678L5.367,-13.016C5.367,-12.535 5.275,-12.053 5.275,-12.053L5.367,-12.053C6.329,-13.94 8.765,-16.715 13.287,-16.715C18.26,-16.715 21.115,-14.119 21.115,-8.174L21.115,0.584C21.115,1.199 21.474,1.547 22.087,1.547L23.853,1.547L23.853,6.254L18.527,6.254C16.414,6.254 15.534,5.373 15.534,3.256L15.534,-7.039C15.534,-9.762 14.833,-11.613 12.013,-11.613C9.021,-11.613 6.779,-9.721 5.981,-7.039C5.674,-6.107 5.542,-5.1 5.542,-4.041L5.542,6.254L0,6.254L0,-10.461Z" style="fill-rule:nonzero;"/></g><g transform="matrix(4.16667,0,0,4.16667,0,22.9083)"><path d="M98.335,226.506L103.174,226.506L103.174,231.654L98.335,231.654L98.335,226.506ZM98.069,241.033C98.069,240.367 97.721,240.055 97.107,240.055L95.336,240.055L95.336,235.307L100.668,235.307C102.73,235.307 103.615,236.233 103.615,238.299L103.615,252.078C103.615,252.693 103.968,253.041 104.582,253.041L106.348,253.041L106.348,257.748L101.026,257.748C98.954,257.748 98.069,256.867 98.069,254.75L98.069,241.033Z" style="fill-rule:nonzero;"/></g><g transform="matrix(4.16667,0,0,4.16667,463.065,1053.82)"><path d="M0,-7.672L-2.906,-7.672L-2.906,-12.111L0.133,-12.111L0.133,-18.227L5.587,-18.227L5.587,-12.111L10.694,-12.111L10.694,-7.672L5.587,-7.672L5.587,1.394C5.587,5.099 8.489,5.623 10.028,5.623C10.652,5.623 11.047,5.537 11.047,5.537L11.047,10.416C11.047,10.416 10.346,10.555 9.333,10.555C6.202,10.555 0,9.629 0,2.103L0,-7.672Z" style="fill-rule:nonzero;"/></g><g transform="matrix(4.16667,0,0,4.16667,570.898,1020.95)"><path d="M0,13.996C3.642,13.996 6.682,11.182 6.682,6.998C6.682,2.859 3.642,0.004 0,0.004C-3.612,0.004 -6.652,2.859 -6.652,6.998C-6.652,11.182 -3.612,13.996 0,13.996M0,-4.75C6.854,-4.75 12.319,0.137 12.319,6.998C12.319,13.91 6.854,18.746 0,18.746C-6.826,18.746 -12.28,13.91 -12.28,6.998C-12.28,0.137 -6.826,-4.75 0,-4.75" style="fill-rule:nonzero;"/></g><g transform="matrix(4.16667,0,0,4.16667,637.235,1073.02)"><path d="M0,-19.8C0,-20.46 -0.358,-20.773 -0.965,-20.773L-2.73,-20.773L-2.73,-25.521L2.599,-25.521C4.661,-25.521 5.588,-24.589 5.588,-22.53L5.588,0.052C5.588,0.667 5.937,1.014 6.557,1.014L8.283,1.014L8.283,5.721L2.99,5.721C0.88,5.721 0,4.841 0,2.723L0,-19.8Z" style="fill-rule:nonzero;"/></g><g transform="matrix(4.16667,0,0,4.16667,733.96,1020.95)"><path d="M0,13.996C3.654,13.996 6.687,11.182 6.687,6.998C6.687,2.859 3.654,0.004 0,0.004C-3.605,0.004 -6.65,2.859 -6.65,6.998C-6.65,11.182 -3.605,13.996 0,13.996M0,-4.75C6.858,-4.75 12.321,0.137 12.321,6.998C12.321,13.91 6.858,18.746 0,18.746C-6.824,18.746 -12.279,13.91 -12.279,6.998C-12.279,0.137 -6.824,-4.75 0,-4.75" style="fill-rule:nonzero;"/></g><g transform="matrix(4.16667,0,0,4.16667,865.772,1088.6)"><path d="M0,-9.765C0,-14.87 -2.553,-16.232 -5.591,-16.232C-8.978,-16.232 -10.83,-13.765 -10.83,-9.99C-10.83,-6.072 -8.845,-3.165 -5.244,-3.165C-2.553,-3.165 0,-4.704 0,-9.765M-6.553,-20.986C-1.366,-20.986 0.354,-17.818 0.354,-17.818L0.437,-17.818L0.437,-18.39C0.437,-19.406 1.141,-20.458 2.9,-20.458L8.1,-20.458L8.1,-15.71L6.375,-15.71C5.807,-15.71 5.409,-15.398 5.409,-14.829L5.409,0.622C5.409,8.321 -0.567,11.221 -6.42,11.221C-9.245,11.221 -12.232,10.43 -14.393,9.288L-12.673,4.889C-12.673,4.889 -9.903,6.381 -6.471,6.381C-3.084,6.381 -0.138,4.928 -0.138,0.889L-0.138,-0.171C-0.138,-0.699 -0.097,-1.365 -0.097,-1.365L-0.178,-1.365C-1.499,0.53 -3.438,1.542 -6.42,1.542C-12.852,1.542 -16.499,-3.646 -16.499,-9.806C-16.499,-15.972 -13.031,-20.986 -6.553,-20.986" style="fill-rule:nonzero;"/></g><g transform="matrix(4.16667,0,0,4.16667,0,22.9083)"><path d="M222.577,226.506L227.422,226.506L227.422,231.654L222.577,231.654L222.577,226.506ZM222.311,241.033C222.311,240.367 221.964,240.055 221.344,240.055L219.59,240.055L219.59,235.307L224.915,235.307C226.977,235.307 227.857,236.233 227.857,238.299L227.857,252.078C227.857,252.693 228.211,253.041 228.824,253.041L230.589,253.041L230.589,257.748L225.269,257.748C223.192,257.748 222.311,256.867 222.311,254.75L222.311,241.033Z" style="fill-rule:nonzero;"/></g><g transform="matrix(4.16667,0,0,4.16667,980.745,1033.05)"><path d="M0,8.188C0,8.188 2.854,11.487 6.692,11.487C8.407,11.487 9.731,10.782 9.731,9.288C9.731,6.12 -2.107,6.167 -2.107,-1.099C-2.107,-5.593 1.935,-7.654 6.602,-7.654C9.639,-7.654 14.479,-6.642 14.479,-2.992L14.479,-0.66L9.546,-0.66L9.546,-1.759C9.546,-2.814 7.961,-3.339 6.738,-3.339C4.753,-3.339 3.392,-2.64 3.392,-1.314C3.392,2.2 15.319,1.501 15.319,8.981C15.319,13.202 11.573,15.842 6.692,15.842C0.532,15.842 -2.64,11.842 -2.64,11.842L0,8.188Z" style="fill-rule:nonzero;"/></g><g transform="matrix(4.16667,0,0,4.16667,1061.42,1073.02)"><path d="M0,-19.8C0,-20.46 -0.354,-20.773 -0.975,-20.773L-2.729,-20.773L-2.729,-25.521L2.598,-25.521C4.665,-25.521 5.585,-25.04 5.585,-22.966L5.585,-8.8L7.265,-8.8C7.97,-8.8 8.886,-8.933 9.376,-9.638L13.946,-16.72L20.146,-16.72L14.479,-8.267C13.516,-6.866 12.799,-6.507 12.799,-6.507L12.799,-6.425C12.799,-6.425 13.593,-6.109 14.391,-4.655L16.944,0.18C17.297,0.841 17.732,1.014 18.785,1.014L20.279,1.014L20.279,5.721L16.145,5.721C14.258,5.721 13.516,5.415 12.626,3.788L8.886,-3.255C8.45,-4.046 7.523,-4.091 6.819,-4.091L5.585,-4.091L5.585,5.721L0,5.721L0,-19.8Z" style="fill-rule:nonzero;"/></g></g><g transform="matrix(2.23823,0,0,2.23823,753.259,-1665.01)"><g transform="matrix(4.16667,0,0,4.16667,95.0987,767.056)"><path d="M0,21.474L2.822,21.474C9.068,21.474 13.07,17.734 13.07,10.693C13.07,3.74 8.979,-0.003 2.822,-0.003L-0.967,-0.003L-0.967,20.504C-0.967,21.123 -0.611,21.474 0,21.474M-6.731,-0.003L-9.588,-0.003L-9.588,-4.883L3.126,-4.883C12.764,-4.883 19.059,0.835 19.059,10.693C19.059,20.548 12.764,26.357 3.126,26.357L-3.74,26.357C-5.848,26.357 -6.731,25.475 -6.731,23.365L-6.731,-0.003Z" style="fill-rule:nonzero;"/></g><g transform="matrix(4.16667,0,0,4.16667,224.536,799.324)"><path d="M0,14.779C2.998,14.779 5.109,11.616 5.109,8.887L5.109,8.36L4.137,8.36C1.24,8.36 -3.392,8.756 -3.392,11.881C-3.392,13.379 -2.285,14.779 0,14.779M4.313,4.533L5.02,4.533L5.02,4.359C5.02,1.143 3.738,-0.047 0.877,-0.047C-0.133,-0.047 -2.111,0.217 -2.111,1.453L-2.111,2.64L-7.301,2.64L-7.301,0.266C-7.301,-3.917 -1.408,-4.359 0.923,-4.359C8.405,-4.359 10.607,-0.435 10.607,4.576L10.607,12.937C10.607,13.553 10.954,13.906 11.579,13.906L13.338,13.906L13.338,18.613L8.314,18.613C6.252,18.613 5.457,17.47 5.457,16.15C5.457,15.574 5.5,15.18 5.5,15.18L5.418,15.18C5.418,15.18 3.699,19.138 -1.359,19.138C-5.37,19.138 -9.019,16.63 -9.019,12.146C-9.019,5.106 0.657,4.533 4.313,4.533" style="fill-rule:nonzero;"/></g><g transform="matrix(4.16667,0,0,4.16667,298.785,850.827)"><path d="M0,-10.468C0,-11.128 -0.353,-11.438 -0.972,-11.438L-2.727,-11.438L-2.727,-16.186L2.42,-16.186C4.401,-16.186 5.373,-15.265 5.373,-13.679L5.373,-13.019C5.373,-12.54 5.281,-12.054 5.281,-12.054L5.373,-12.054C6.334,-13.945 8.754,-16.72 13.288,-16.72C18.266,-16.72 21.116,-14.124 21.116,-8.183L21.116,0.576C21.116,1.193 21.474,1.546 22.088,1.546L23.843,1.546L23.843,6.252L18.521,6.252C16.414,6.252 15.534,5.37 15.534,3.26L15.534,-7.035C15.534,-9.76 14.828,-11.611 12.014,-11.611C9.021,-11.611 6.774,-9.72 5.986,-7.035C5.674,-6.111 5.542,-5.104 5.542,-4.047L5.542,6.252L0,6.252L0,-10.468Z" style="fill-rule:nonzero;"/></g><g transform="matrix(4.16667,0,0,4.16667,420.024,813.053)"><path d="M0,8.189C0,8.189 2.866,11.484 6.687,11.484C8.412,11.484 9.727,10.785 9.727,9.288C9.727,6.122 -2.107,6.165 -2.107,-1.092C-2.107,-5.582 1.934,-7.654 6.601,-7.654C9.64,-7.654 14.485,-6.642 14.485,-2.988L14.485,-0.655L9.552,-0.655L9.552,-1.758C9.552,-2.811 7.972,-3.342 6.739,-3.342C4.753,-3.342 3.397,-2.633 3.397,-1.315C3.397,2.208 15.313,1.502 15.313,8.981C15.313,13.209 11.579,15.843 6.687,15.843C0.527,15.843 -2.64,11.842 -2.64,11.842L0,8.189Z" style="fill-rule:nonzero;"/></g><g transform="matrix(4.16667,0,0,4.16667,501.717,853.051)"><path d="M0,-19.804C0,-20.462 -0.353,-20.771 -0.978,-20.771L-2.727,-20.771L-2.727,-25.522L2.594,-25.522C4.661,-25.522 5.587,-25.038 5.587,-22.967L5.587,-8.802L7.261,-8.802C7.957,-8.802 8.888,-8.935 9.374,-9.639L13.947,-16.72L20.154,-16.72L14.474,-8.272C13.513,-6.867 12.807,-6.514 12.807,-6.514L12.807,-6.428C12.807,-6.428 13.594,-6.121 14.382,-4.662L16.94,0.175C17.299,0.835 17.734,1.012 18.792,1.012L20.282,1.012L20.282,5.718L16.147,5.718C14.25,5.718 13.513,5.409 12.632,3.785L8.888,-3.261C8.458,-4.051 7.521,-4.097 6.82,-4.097L5.587,-4.097L5.587,5.718L0,5.718L0,-19.804Z" style="fill-rule:nonzero;"/></g></g><g><g transform="matrix(4.16667,0,0,4.16667,711.778,789.537)"><path d="M0,-141.71C-0.9,-141.997 -1.535,-142.592 -2.302,-143.13C-2.968,-143.595 -2.979,-144.054 -1.96,-144.203C-0.108,-144.473 1.484,-144 1.914,-143.562C2.805,-142.644 1.984,-142.069 1.171,-141.836C0.246,-141.564 0.368,-141.598 0,-141.71M-5.065,-145.238C-5.884,-145.302 -8.732,-147.039 -9.103,-147.402C-9.69,-147.963 -7.132,-148.415 -5.115,-149.012C-2.537,-149.768 0.762,-149.779 1.269,-148.929C1.718,-148.136 0.552,-147.589 -2.231,-146.307C-3.729,-145.609 -4.258,-145.177 -5.065,-145.238M-11.267,-148.6C-12.147,-148.881 -15.298,-150.352 -15.411,-150.628C-15.799,-151.585 -12.781,-152.293 -10.766,-152.892C-8.596,-153.529 -4.83,-154.223 -3.807,-152.948C-3.239,-152.225 -5.127,-151.511 -7.271,-150.344C-8.719,-149.543 -10.479,-148.352 -11.267,-148.6M-17.825,-151.539C-18.613,-151.698 -23.786,-153.66 -23.903,-153.936C-24.283,-154.892 -18.777,-155.742 -17.319,-156.051C-15.109,-156.535 -12.74,-156.681 -12.178,-156.259C-11.681,-155.893 -12.949,-155.043 -14.153,-154.115C-15.032,-153.435 -17.129,-151.409 -17.825,-151.539M-37.375,-71.505C-29.173,-68.909 -21.908,-70.303 -20.783,-67.164C-19.914,-64.741 -21.13,-63.679 -22.165,-62.324C-22.258,-62.329 -22.348,-62.344 -22.456,-62.367C-25.336,-62.897 -24.6,-63.8 -26.708,-64.32C-28.826,-64.843 -29.685,-63.743 -32.756,-66.087C-35.82,-68.425 -38.568,-70.318 -40.845,-71.797C-42.037,-72.574 -45.071,-73.68 -45.819,-71.505C-46.283,-70.216 -45.526,-69.372 -43.632,-68.773C-40.446,-67.76 -36.931,-66.348 -34.762,-65.043C-32.582,-63.743 -28.837,-62.403 -27.502,-61.83C-26.16,-61.254 -25.336,-61.444 -24.545,-61.047C-24.191,-60.86 -23.67,-60.658 -23.156,-60.446C-23.279,-60.057 -23.331,-59.623 -23.331,-59.134L-23.331,-59.126C-23.807,-59.07 -24.335,-59.029 -24.887,-59.021C-25.346,-59.019 -26.146,-59.635 -27.435,-60.134C-28.586,-60.576 -30.854,-60.377 -35.057,-61.032C-38.275,-61.528 -41.561,-62.172 -43.408,-63.063C-44.329,-63.505 -45.459,-64.097 -46.426,-64.45C-47.245,-64.749 -48.259,-64.665 -48.699,-63.641C-49.107,-62.654 -47.849,-61.262 -47.838,-61.262C-51.236,-60.881 -54.316,-60.953 -56.29,-61.237C-61.48,-61.986 -62.074,-62.799 -63.679,-62.882C-63.756,-62.887 -65.757,-63.376 -68.203,-62.065C-91.614,-49.533 -92.781,-48.105 -100.241,-47.424C-102.085,-47.253 -106.61,-47.479 -110.72,-50.108C-113.983,-52.199 -113.861,-55.416 -113.396,-57.131C-112.726,-59.605 -108.301,-62.515 -101.735,-65.793C-95.258,-69.034 -87.654,-72.804 -86.136,-73.559C-86.089,-73.587 -83.582,-70.88 -81.79,-70.259C-80.615,-69.857 -79.561,-70.001 -78.18,-70.87C-76.624,-71.85 -73.533,-75.002 -72.577,-79.742C-71.374,-85.68 -74.746,-91.49 -74.914,-92.971C-74.982,-93.552 -74.297,-93.994 -73.205,-95.114C-71.609,-96.765 -69.455,-99.254 -67.915,-101.603C-64.6,-106.661 -64.631,-110.807 -65.45,-119.842C-65.981,-125.614 -66.319,-129.562 -65.162,-132.14C-63.353,-136.205 -58.439,-135.821 -52.535,-129.94C-50.003,-127.431 -49.344,-126.389 -48.483,-124.141C-46.795,-119.725 -48.627,-112.511 -49.834,-104.634C-51.866,-91.359 -53.519,-83.522 -50.596,-79.566C-49.077,-77.502 -43.603,-73.485 -37.375,-71.505M-29.962,-54.534C-33.051,-55.693 -36.387,-57.458 -39.617,-58.909C-37.789,-58.893 -36.065,-59.215 -34.762,-59.1C-32.828,-58.947 -30.115,-57.972 -27.988,-57.417C-26.574,-57.043 -24.958,-57.365 -24.196,-57.123C-24.007,-57.069 -23.79,-56.961 -23.546,-56.836C-24.119,-54.416 -25.889,-53.007 -29.962,-54.534M-93.483,13.443C-93.979,13.591 -94.981,12.988 -95.755,11.506C-96.139,10.78 -96.629,9.25 -95.934,8.93C-95.447,8.703 -93.62,9.485 -93.467,9.744C-93.027,10.437 -93.017,13.289 -93.483,13.443M-100.641,14.661C-102.667,14.175 -105.859,4.548 -104.509,4.382C-103.957,4.323 -100.732,6.18 -100.451,6.539C-99.914,7.196 -99.424,14.955 -100.641,14.661M-108.346,11.822C-108.97,11.928 -110.786,9.959 -111.661,7.873C-113.073,4.517 -113.52,-0.742 -112.613,-0.927C-111.943,-1.075 -109.174,1.332 -108.877,1.575C-108.033,2.284 -108.089,4.527 -107.947,6.099C-107.751,8.334 -107.618,11.707 -108.346,11.822M-97.448,-99.172C-97.448,-99.425 -97.222,-99.633 -96.947,-99.633C-96.67,-99.633 -96.45,-99.425 -96.45,-99.172C-96.455,-98.916 -96.681,-98.711 -96.957,-98.711C-97.222,-98.711 -97.448,-98.919 -97.448,-99.172M-91.973,-87.788C-93.631,-89.466 -93.732,-90.29 -93.467,-90.663C-93.195,-91.037 -93.329,-91.895 -95.678,-92.485C-96.761,-92.756 -98.132,-93.288 -98.093,-94.031C-98.005,-95.412 -95.207,-95.614 -93.017,-95.593C-90.606,-95.564 -89.006,-94.578 -88.734,-95.079C-88.58,-95.357 -89.921,-96.84 -94.209,-97.454C-95.049,-97.571 -96.096,-97.527 -96.926,-97.499C-96.307,-97.724 -95.853,-98.29 -95.853,-98.952C-95.853,-99.817 -96.608,-100.518 -97.555,-100.518C-98.485,-100.528 -99.254,-99.824 -99.254,-98.96C-99.254,-98.505 -99.033,-97.949 -98.696,-97.666C-99.71,-97.876 -100.451,-98.346 -100.652,-98.824C-100.905,-99.413 -100.176,-100.446 -99.403,-101.042C-98.385,-101.849 -97.433,-102.202 -95.785,-101.849C-93.815,-101.436 -91.349,-99.014 -88.586,-98.711C-86.847,-98.522 -85.086,-98.904 -85.086,-98.904C-85.086,-98.904 -85.477,-97.489 -85.477,-96.185C-85.485,-94.406 -85.261,-93.511 -85.244,-91.733C-85.239,-88.617 -86.013,-85.158 -87.713,-85.041C-89.286,-84.941 -90.325,-86.074 -91.973,-87.788M-115.469,1.895C-115.569,3.172 -115.744,6.18 -116.686,6.18C-117.428,6.18 -118.65,3.886 -119.233,0.606C-119.479,-0.768 -120.268,-6.516 -119.643,-6.8C-119.069,-7.061 -116.173,-3.881 -115.504,-3.127C-114.914,-2.477 -115.355,0.562 -115.469,1.895M4.062,-133.488C4.011,-134.187 9.548,-135.731 9.28,-137.341C8.877,-139.743 2.379,-139.755 2.169,-140.516C1.928,-141.437 7.281,-142.038 6.309,-143.972C5.388,-145.788 -0.702,-145.105 -1.114,-145.56C-1.628,-146.129 4.277,-147.643 2.635,-149.4C0.891,-151.275 -4.508,-149.679 -5.479,-150.293C-6.329,-150.833 -0.175,-152.389 -3.162,-153.803C-6.825,-155.535 -12.198,-152.383 -13.363,-153.683C-13.646,-154.006 -9.047,-156.272 -12.127,-157.256C-13.783,-157.781 -26.53,-155.415 -42.706,-149.18C-54.521,-144.624 -63.586,-139.743 -66.37,-133.519C-67.649,-130.671 -66.79,-124.721 -66.616,-122.007C-66.4,-118.697 -64.282,-108.807 -68.022,-103.133C-71.763,-97.46 -77.525,-92.377 -81.065,-92.377C-83.02,-92.377 -84.493,-93.889 -84.441,-96.056C-84.387,-98.272 -84.017,-98.999 -83.921,-99.092C-83.921,-99.092 -81.443,-99.627 -78.926,-100.503C-77.551,-100.986 -75.753,-101.682 -75.826,-101.899C-75.943,-102.222 -76.172,-101.96 -77.341,-101.659C-78.107,-101.449 -80.042,-101.14 -80.042,-101.564C-80.042,-101.746 -78.997,-101.958 -76.85,-102.836C-74.342,-103.864 -70.622,-106.527 -69.742,-107.558C-68.919,-108.515 -68.744,-108.929 -68.938,-109.083C-69.333,-109.249 -70.091,-108.246 -71.026,-107.497C-72.402,-106.407 -73.493,-105.821 -74.297,-105.396C-75.098,-104.987 -75.447,-105.089 -75.426,-105.294C-75.416,-105.499 -71.988,-108.917 -71.772,-114.294C-71.508,-120.697 -75.846,-125.049 -76.106,-124.877C-76.367,-124.7 -75.907,-124.148 -75.406,-123.314C-74.895,-122.482 -72.223,-118.169 -73.227,-112.769C-73.697,-110.306 -76.42,-105.56 -80.64,-104.091C-81.78,-103.69 -83.122,-103.304 -86.427,-103.304C-88.771,-103.304 -91.799,-103.974 -93.672,-104.406C-95.447,-104.816 -97.346,-104.791 -99.08,-103.998C-100.753,-103.219 -101.817,-101.807 -102.774,-100.781C-103.429,-100.081 -103.957,-99.717 -105.098,-99.917C-105.941,-100.055 -106.842,-100.449 -107.88,-100.436C-108.816,-100.418 -110.229,-99.912 -109.765,-99.231C-109.49,-98.827 -108.771,-99.439 -106.401,-98.932C-105.822,-98.817 -101.714,-97.793 -101.735,-96.576C-101.746,-95.652 -104.835,-96.064 -106.764,-95.675C-108.767,-95.281 -110.301,-94.494 -110.035,-93.984C-109.614,-93.173 -106.371,-94.936 -103.051,-94.061C-101.613,-93.69 -100.717,-93.145 -98.39,-90.682C-96.036,-88.179 -93.784,-84.223 -86.861,-74.577C-86.713,-74.368 -95.524,-69.942 -99.699,-67.867C-103.858,-65.78 -113.421,-61.725 -115.068,-56.79C-117.392,-49.802 -115.411,-44.984 -115.846,-43.12C-117.458,-36.209 -119.244,-32.415 -120.411,-19.284C-121.28,-9.502 -120.743,3.955 -117.627,6.618C-114.189,9.562 -115.109,1.277 -114.363,1.406C-113.278,1.594 -114.578,8.002 -109.281,12.432C-105.736,15.4 -107.405,4.988 -106.918,4.988C-105.777,4.988 -103.649,15.211 -100.652,15.638C-98.118,16.004 -99.74,7.977 -98.604,8.247C-97.848,8.419 -96.082,15.119 -92.218,15.717C-89.968,16.071 -91.518,9.652 -90.653,9.475C-90.103,9.365 -86.478,14.545 -84.493,13.583C-82.19,12.471 -84.359,6.068 -83.673,5.914C-83.122,5.799 -80.574,9.245 -79.018,8.792C-76.256,7.997 -78.42,0.936 -78.081,0.501C-77.657,-0.044 -75.631,2.351 -73.82,1.542C-71.292,0.427 -74.782,-6.266 -74.363,-6.544C-73.953,-6.815 -71.988,-5.216 -70.833,-7.125C-69.062,-10.041 -71.344,-14.254 -72.489,-16.961C-72.936,-18.033 -70.785,-18.962 -71.313,-21.252C-72.314,-25.79 -75.253,-28.291 -75.335,-29.021C-75.528,-30.975 -74.506,-31.993 -74.617,-33.413C-74.67,-34.116 -77.079,-38.292 -77.739,-40.042C-77.872,-40.425 -77.679,-40.99 -77.637,-41.044C-70.192,-49.867 -53.375,-59.981 -46.597,-59.402C-43.535,-59.147 -30.688,-53.295 -25.061,-50.139C-22.563,-48.734 -19.432,-48.658 -17.934,-50.52C-14.751,-54.485 -16.102,-56.506 -15.462,-58.033C-14.184,-61.078 -13.057,-60.456 -11.839,-64.935C-11.129,-67.555 -12.545,-69.433 -14.034,-70.208C-16.26,-71.369 -36.199,-70.121 -39.171,-74.818C-42.221,-79.637 -43.837,-91.332 -32.612,-111.393C-32.348,-111.871 -28.059,-110.208 -24.724,-110.39C-22.748,-110.502 -20.046,-111.585 -18.593,-112.337C-18.117,-112.592 -14.08,-111.129 -8.928,-112.011C-5.752,-112.554 -7.767,-114.613 -7.658,-114.998C-7.491,-115.55 0.185,-114.872 1.156,-116.527C2.026,-117.993 -0.583,-119.682 -0.583,-120.221C-0.583,-120.901 6.906,-121.002 7.103,-122.951C7.281,-124.756 3.5,-125.673 3.767,-126.312C4.186,-127.318 9.429,-127.594 9.577,-129.638C9.726,-131.676 4.145,-132.509 4.062,-133.488" style="fill-rule:nonzero;"/></g><g transform="matrix(4.16667,0,0,4.16667,147.777,427.557)"><path d="M0,-96.434C0.874,-96.91 1.586,-96.864 1.795,-96.585C2.062,-96.245 1.325,-95.368 1.059,-95.345C0.624,-95.306 -0.031,-95.4 -0.507,-95.631C-0.824,-95.782 -0.528,-96.138 0,-96.434M-2.513,-99.54C-1.234,-100.297 -0.159,-100.558 0.086,-100.241C0.598,-99.632 -0.895,-97.655 -1.234,-97.217C-1.74,-96.562 -2.047,-96.186 -2.83,-96.091C-3.26,-96.043 -5.225,-96.245 -5.429,-96.381C-6.115,-96.833 -3.25,-99.102 -2.513,-99.54M-4.477,-102.03C-3.71,-101.74 -4.897,-100.046 -5.654,-98.726C-6.104,-97.941 -6.499,-96.989 -6.893,-96.619C-7.183,-96.348 -9.717,-96.429 -9.957,-96.613C-10.443,-96.971 -8.541,-98.88 -6.846,-100.478C-6.012,-101.267 -4.856,-102.169 -4.477,-102.03M-13.635,-98.322C-12.756,-99.384 -9.86,-102.014 -9.492,-101.72C-9.134,-101.423 -10.238,-99.647 -10.75,-98.299C-11.103,-97.368 -11.39,-96.56 -11.692,-96.416C-12.572,-96.004 -14.516,-95.813 -14.884,-95.892C-15.417,-96.022 -14.736,-96.979 -13.635,-98.322M-14.986,2.016C-14.864,1.952 -13.63,2.164 -13.522,2.238C-13.39,2.334 -13.288,2.523 -13.186,2.833C-13.022,3.323 -12.971,3.666 -13.237,3.769C-13.702,3.938 -14.116,3.569 -14.486,3.162C-14.802,2.814 -15.345,2.185 -14.986,2.016M-18.885,1.115C-18.578,1.01 -17.729,1.369 -17.473,1.433C-16.859,1.571 -16.439,2.637 -16.205,3.234C-16.045,3.635 -15.104,5.529 -15.764,5.606C-16.132,5.646 -17.606,3.966 -18.092,3.323C-18.506,2.771 -19.591,1.354 -18.885,1.115M-21.453,3.057C-22.38,1.177 -22.835,0.194 -22.323,0.051C-21.945,-0.061 -20.646,0.465 -20.451,0.561C-19.97,0.78 -19.715,2.461 -19.643,2.981C-19.581,3.472 -19.233,5.599 -19.591,5.613C-19.97,5.636 -21.065,3.874 -21.453,3.057M-26.447,-1.67C-26.12,-1.819 -24.467,-1.023 -24.022,-0.639C-23.644,-0.297 -23.653,-0.018 -23.526,0.901C-23.438,1.584 -22.814,4.516 -23.229,4.636C-23.653,4.754 -25.194,1.906 -25.572,1.054C-25.885,0.356 -26.795,-1.504 -26.447,-1.67M5.337,-44.848C5.797,-47.646 9.1,-48.746 14.854,-49.294C22.763,-50.051 24.036,-50.182 24.128,-49.808C24.23,-49.396 23.657,-49.501 21.08,-48.346C19.494,-47.631 17.703,-46.456 17.207,-42.962C16.629,-38.969 17.518,-37.398 19.647,-35.559C21.31,-34.14 22.301,-33.738 22.235,-33.571C22.133,-33.325 21.909,-33.267 21.354,-33.413C19.218,-33.978 16.484,-35.106 11.654,-37.163C6.104,-39.519 4.865,-41.959 5.337,-44.848M-26.774,-54.825C-26.079,-55.352 -25.394,-55.232 -24.621,-55.06C-23.73,-54.866 -22.974,-54.604 -22.38,-54.621C-21.853,-54.636 -21.116,-54.912 -21.116,-54.912C-21.116,-54.912 -20.707,-54.497 -20.456,-54.152C-20.124,-53.704 -19.939,-53.362 -19.704,-52.712C-18.818,-50.305 -19.914,-47.485 -21.618,-47.278C-22.159,-47.206 -22.814,-47.278 -23.74,-48.171C-24.467,-48.885 -25.046,-49.672 -25.194,-49.898C-25.833,-50.816 -25.046,-51.351 -24.155,-51.807C-23.787,-52 -22.692,-52.458 -21.833,-52.349C-21.53,-52.31 -21.362,-52.259 -21.29,-52.39C-21.259,-52.463 -21.29,-52.559 -21.423,-52.635C-21.638,-52.763 -21.935,-52.773 -22.277,-52.797C-23.219,-52.86 -24.994,-52.356 -25.639,-52.31C-25.987,-52.282 -26.877,-52.103 -27.307,-52.64C-27.767,-53.208 -27.338,-54.395 -26.774,-54.825M-18.65,-53.397C-19.463,-53.566 -20.446,-55.129 -20.492,-55.303C-20.512,-55.355 -19.408,-56.079 -18.476,-56.746C-17.749,-57.273 -17.14,-57.858 -16.766,-58.23C-16.624,-58.366 -16.572,-57.022 -16.762,-56.094C-16.93,-55.329 -17.826,-53.228 -18.65,-53.397M23.382,-35.068C23.525,-35.549 23.863,-35.744 23.965,-36.224C24.088,-36.744 23.874,-37.378 23.965,-37.943C24.031,-38.416 24.522,-38.808 24.585,-39.225C24.718,-40.087 24.385,-40.652 24.447,-40.998C24.569,-41.796 24.872,-41.624 25.028,-42.556C25.235,-43.676 24.722,-43.83 24.872,-45.015C24.988,-45.999 25.295,-45.864 25.353,-46.643C25.418,-47.636 25.111,-47.381 25.126,-48.186C25.142,-48.726 25.295,-48.844 25.295,-49.276C25.295,-50.1 24.982,-50.56 23.954,-50.596C22.952,-50.627 22.175,-50.663 16.439,-50.177C11.85,-49.781 8.163,-49.739 4.343,-51.139C2.03,-51.987 0.813,-56.815 0.246,-58.273C-0.323,-59.729 -2.994,-68.284 -2.676,-69.361C-2.37,-70.43 -0.303,-71.372 -0.067,-72.869C0.168,-74.36 -0.518,-75.043 -0.419,-75.477C-0.313,-75.915 3.658,-78.658 3.761,-80.51C3.837,-81.873 2.681,-82.137 2.958,-82.424C2.958,-82.424 5.765,-84.989 5.269,-85.89C4.947,-86.496 3.524,-85.89 3.305,-86.074C2.982,-86.343 6.655,-89.282 6.018,-90.474C5.561,-91.331 3.586,-89.977 3.438,-90.302C3.284,-90.625 6.462,-93.587 5.433,-94.746C4.656,-95.619 2.134,-93.613 1.842,-93.948C1.529,-94.311 4.533,-97.011 3.37,-98.02C2.512,-98.773 -0.507,-96.542 -0.784,-96.777C-1.059,-97.002 1.899,-99.862 0.357,-100.737C-1.234,-101.643 -4.657,-98.186 -5.111,-98.463C-5.562,-98.744 -2.047,-102.357 -4.344,-102.608C-5.952,-102.779 -8.355,-99.061 -9.569,-99.239C-10.121,-99.32 -7.466,-102.794 -9.399,-102.354C-10.708,-102.06 -16.552,-97.859 -20.164,-87.066C-23.756,-76.273 -24.902,-71.205 -24.432,-69.776C-23.976,-68.346 -21.443,-66.427 -20.272,-65.109C-19.095,-63.797 -17.023,-60.934 -16.839,-59.463C-16.798,-59.186 -17.719,-58.22 -21.362,-57.618C-21.976,-57.519 -22.875,-57.414 -23.946,-57.447C-24.718,-57.475 -25.649,-57.493 -26.289,-57.189C-27,-56.857 -27.727,-56.153 -28.187,-55.247C-28.627,-54.342 -28.74,-53.636 -28.893,-53.451C-28.985,-53.352 -29.497,-53.346 -30.515,-53.055C-31.328,-52.817 -32.387,-52.374 -32.546,-52.216C-32.684,-52.073 -32.73,-51.906 -32.664,-51.766C-32.597,-51.617 -32.418,-51.62 -32.25,-51.647C-31.983,-51.699 -30.894,-52.049 -29.64,-52C-28.836,-51.967 -28.207,-51.655 -27.645,-51.221C-27.082,-50.783 -26.938,-50.691 -24.206,-47.545C-21.464,-44.391 -20.717,-43.095 -20.379,-42.479C-20.027,-41.85 -19.611,-41.171 -19.847,-40.627C-20.082,-40.08 -20.421,-39.177 -22.288,-38.58C-24.155,-37.995 -26.979,-36.859 -31.661,-36.359C-36.347,-35.859 -35.554,-31.192 -35.15,-28.209C-34.741,-25.237 -32.822,-15.434 -29.635,-7.094C-26.452,1.244 -23.874,5.237 -23.126,5.391C-22.702,5.478 -22.635,4.402 -22.732,3.441C-22.799,2.779 -22.907,2.108 -22.682,2.116C-22.323,2.133 -20.758,6.33 -19.351,6.234C-18.43,6.174 -19.284,3.162 -19.07,3.162C-18.43,3.162 -16.808,6.36 -15.451,6.012C-14.315,5.721 -16.102,2.942 -15.831,2.702C-15.508,2.433 -13.472,5.475 -12.06,4.815C-10.899,4.255 -12.029,1.787 -11.769,1.559C-11.436,1.256 -9.501,2.952 -8.785,2.387C-7.67,1.524 -9.553,-1.294 -9.306,-1.711C-9.113,-2.052 -7.025,-0.83 -6.33,-1.757C-5.531,-2.824 -7.67,-5.395 -7.476,-5.802C-7.291,-6.208 -6.042,-5.904 -5.695,-7.161C-5.429,-8.094 -7.118,-9.509 -7.27,-10.288C-7.423,-11.079 -6.703,-11.402 -6.933,-12.405C-7.149,-13.301 -8.448,-13.558 -8.883,-14.584C-9.328,-15.605 -9.01,-16.503 -9.573,-17.503C-10.141,-18.493 -12.504,-19.866 -13.032,-20.79C-13.472,-21.563 -13.575,-22.359 -13.237,-23.31C-12.776,-24.587 -9.316,-28.491 -5.199,-32.201C-1.705,-35.347 0.854,-37.7 3.101,-38.317C5.173,-38.89 6.83,-38.41 7.675,-38.059C19.474,-33.208 21.039,-32.807 21.667,-32.807C22.317,-32.807 22.809,-33.131 23.1,-33.671C23.243,-33.953 23.198,-34.525 23.382,-35.068" style="fill-rule:nonzero;"/></g></g></svg>