<svg id="Layer_1" data-name="Layer 1" xmlns="http://www.w3.org/2000/svg" viewBox="0 0 442.38 38.25"><path d="M228.79,311.59c0,1.52.67,1.85,3.13,2v.82h-8.31v-.77c1.84-.23,2.15-.38,2.15-1.82V299c0-1.44-.31-1.59-2.15-1.82v-.77h13.27L237,301h-.59c-1-2.8-2-3.62-3.9-3.62h-3.7v7.55H232c1.13,0,1.49-.83,1.75-2.42h.77v5.8h-.77c-.26-1.59-.62-2.41-1.75-2.41h-3.23Z" transform="translate(-175.29 -286.76)" style="fill:#181716"/><path d="M244,305.79c0-5.87,3.67-9.62,8.4-9.62,5.26,0,8.16,4.23,8.16,8.91,0,5.87-3.67,9.62-8.4,9.62C246.86,314.7,244,310.46,244,305.79Zm13.27-.28c0-4.13-1.56-8.39-5.11-8.39-3.25,0-4.9,3.85-4.9,8.24,0,4.13,1.59,8.39,5.14,8.39C255.59,313.75,257.23,309.9,257.23,305.51Z" transform="translate(-175.29 -286.76)" style="fill:#181716"/><path d="M272.89,311.85c0,1.44.31,1.59,2.16,1.82v.77h-7.34v-.77c1.85-.23,2.15-.38,2.15-1.82V299c0-1.44-.3-1.59-2.15-1.82v-.77h7.44c4.34,0,6.62,2,6.62,4.95s-2.46,4.39-4.39,4.8l4.08,5.34c1.19,1.59,2,2.1,3.34,2.15v.77h-4.31a9.65,9.65,0,0,1-2.13-2.38l-3.9-5.42h-1.57Zm0-14.47v8.31h1.52c2.87,0,4.21-1.59,4.21-4.31,0-2.26-1.36-4-4.29-4Z" transform="translate(-175.29 -286.76)" style="fill:#181716"/><path d="M306.9,300.25l-5.1,14.19h-.9l-5.47-14.19-1.28,11.14a6.13,6.13,0,0,0,0,.64c0,1.23.59,1.49,2.38,1.64v.77h-5.64v-.77c1.41-.1,2-.36,2.08-1.56l1.59-13c0-1.36-.54-1.77-2.18-1.87v-.77h5a5.32,5.32,0,0,0,.38,1.51l4.62,12,4.24-12a5.32,5.32,0,0,0,.38-1.51h5v.77c-1.64.1-2.16.51-2.16,1.87l1.57,13c.15,1.23.69,1.46,2.08,1.56v.77h-7.57v-.77c1.79-.15,2.38-.41,2.38-1.64,0-.1,0-.44,0-.64Z" transform="translate(-175.29 -286.76)" style="fill:#181716"/><path d="M324.64,308c0,3.23,1.52,5.16,4.32,5.16,3.13,0,5.13-1.57,5.13-5.34V299c0-1.43-.36-1.64-2.49-1.84v-.77h5.83v.77c-1.85.23-2.19.41-2.19,1.84v9.27c0,4.34-2.92,6.39-6.59,6.39-4.31,0-7-2.05-7-6.47V299c0-1.44-.33-1.59-2.18-1.82v-.77h7.37v.77c-1.88.23-2.19.38-2.19,1.82Z" transform="translate(-175.29 -286.76)" style="fill:#181716"/><path d="M349.26,311.77c0,1.39.7,1.75,2.39,1.75H353c2.06,0,2.93-1.39,4.52-4.34h.74l-.84,5.26H344.08v-.77c1.85-.23,2.15-.38,2.15-1.82V299c0-1.44-.3-1.59-2.15-1.82v-.77h7.34v.77c-1.85.23-2.16.38-2.16,1.82Z" transform="translate(-175.29 -286.76)" style="fill:#181716"/><path d="M376,308.31H368.8l-1.23,3.21a2.65,2.65,0,0,0-.26,1c0,.79.61,1.08,2.28,1.15v.77h-5.16v-.77c.72-.13,1.26-.25,1.52-.95L371.72,298l-.77-1.79h3.24l6.72,16.47c.26.67.8.82,1.52.95v.77h-7.16v-.77c1.61-.05,2.23-.33,2.23-1.13a2.84,2.84,0,0,0-.23-1Zm-6.78-.95h6.39l-3.26-8.06Z" transform="translate(-175.29 -286.76)" style="fill:#181716"/><path d="M410.69,308.31h-7.16l-1.23,3.21a2.65,2.65,0,0,0-.26,1c0,.79.62,1.08,2.29,1.15v.77h-5.16v-.77c.72-.13,1.25-.25,1.51-.95L406.46,298l-.77-1.79h3.23l6.72,16.47c.26.67.8.82,1.52.95v.77H410v-.77c1.61-.05,2.23-.33,2.23-1.13a2.84,2.84,0,0,0-.23-1Zm-6.78-.95h6.4l-3.26-8.06Z" transform="translate(-175.29 -286.76)" style="fill:#878787"/><path d="M427.4,308c0,3.23,1.52,5.16,4.32,5.16,3.13,0,5.13-1.57,5.13-5.34V299c0-1.43-.36-1.64-2.49-1.84v-.77h5.82v.77c-1.84.23-2.18.41-2.18,1.84v9.27c0,4.34-2.92,6.39-6.59,6.39-4.31,0-7-2.05-7-6.47V299c0-1.44-.33-1.59-2.18-1.82v-.77h7.37v.77c-1.88.23-2.19.38-2.19,1.82Z" transform="translate(-175.29 -286.76)" style="fill:#878787"/><path d="M462.21,296.43l.39,5.62h-.67c-1.54-3.7-2.11-4.78-4.24-4.78h-1.64v14.66c0,1.43.67,1.51,2.41,1.74v.77h-7.85v-.77c1.77-.23,2.44-.31,2.44-1.74V297.27h-1.67c-2.13,0-2.7,1.08-4.21,4.78h-.69l.38-5.62Z" transform="translate(-175.29 -286.76)" style="fill:#878787"/><path d="M469.4,305.79c0-5.87,3.67-9.62,8.39-9.62,5.27,0,8.17,4.23,8.17,8.91,0,5.87-3.67,9.62-8.4,9.62C472.3,314.7,469.4,310.46,469.4,305.79Zm13.27-.28c0-4.13-1.57-8.39-5.11-8.39-3.26,0-4.9,3.85-4.9,8.24,0,4.13,1.59,8.39,5.13,8.39C481,313.75,482.67,309.9,482.67,305.51Z" transform="translate(-175.29 -286.76)" style="fill:#878787"/><path d="M508.6,300.25l-5.11,14.19h-.9l-5.46-14.19-1.29,11.14c0,.2,0,.54,0,.64,0,1.23.59,1.49,2.39,1.64v.77h-5.65v-.77c1.41-.1,2-.36,2.08-1.56l1.59-13c0-1.36-.54-1.77-2.18-1.87v-.77h5a5,5,0,0,0,.39,1.51l4.62,12,4.23-12a5.34,5.34,0,0,0,.39-1.51h5v.77c-1.64.1-2.15.51-2.15,1.87l1.56,13c.16,1.23.7,1.46,2.08,1.56v.77h-7.57v-.77c1.8-.15,2.39-.41,2.39-1.64,0-.1,0-.44,0-.64Z" transform="translate(-175.29 -286.76)" style="fill:#878787"/><path d="M521.72,305.79c0-5.87,3.67-9.62,8.39-9.62,5.26,0,8.16,4.23,8.16,8.91,0,5.87-3.67,9.62-8.39,9.62C524.62,314.7,521.72,310.46,521.72,305.79Zm13.27-.28c0-4.13-1.57-8.39-5.11-8.39-3.26,0-4.9,3.85-4.9,8.24,0,4.13,1.59,8.39,5.13,8.39C533.35,313.75,535,309.9,535,305.51Z" transform="translate(-175.29 -286.76)" style="fill:#878787"/><path d="M545.46,314.44v-.77c1.85-.23,2.16-.38,2.16-1.82V299c0-1.44-.31-1.59-2.16-1.82v-.77h7.68c3.92,0,6.13,1.51,6.13,4.46,0,2.59-2.44,3.93-4.85,4.21,3.39.13,5.78,1.77,5.78,4.49,0,3-2.31,4.85-6.55,4.85Zm5.19-17.09v7.31h1.59c2.72,0,4-1.25,4-3.72,0-2.28-1.41-3.59-4-3.59Zm0,8.29v6.16c0,1.39.67,1.72,2.33,1.72h.29c2.61,0,3.85-1.44,3.85-3.93,0-2.28-1.29-3.95-4.32-3.95Z" transform="translate(-175.29 -286.76)" style="fill:#878787"/><path d="M572.72,311.85c0,1.44.31,1.59,2.16,1.82v.77h-7.34v-.77c1.85-.23,2.16-.38,2.16-1.82V299c0-1.44-.31-1.59-2.16-1.82v-.77h7.34v.77c-1.85.23-2.16.38-2.16,1.82Z" transform="translate(-175.29 -286.76)" style="fill:#878787"/><path d="M587.15,311.77c0,1.39.69,1.75,2.39,1.75h1.33c2.06,0,2.93-1.39,4.52-4.34h.74l-.84,5.26H582v-.77c1.84-.23,2.15-.38,2.15-1.82V299c0-1.44-.31-1.59-2.15-1.82v-.77h7.34v.77c-1.85.23-2.16.38-2.16,1.82Z" transform="translate(-175.29 -286.76)" style="fill:#878787"/><path d="M602.91,313.67c1.85-.23,2.16-.38,2.16-1.82V299c0-1.44-.31-1.59-2.16-1.82v-.77h13.71l.13,4.44h-.62c-1.2-2.78-2-3.52-3.9-3.52H608.1v7.31h3.69c1.13,0,1.54-.74,1.8-2.33h.8V308h-.8c-.26-1.59-.67-2.31-1.8-2.31H608.1v6.13c0,1.39.72,1.75,2.41,1.75h2c2,0,2.77-1.08,4.42-3.93h.74l-.79,4.85h-14Z" transform="translate(-175.29 -286.76)" style="fill:#878787"/><path d="M203.63,288.27c-.19-.06-4.71-1.51-14-1.51s-13.8,1.45-14,1.51l-.35.11v18.06c0,4.78,2.45,9.5,7.09,13.64a34.18,34.18,0,0,0,7,4.83l.22.11.23-.11a34.18,34.18,0,0,0,7-4.83c4.64-4.14,7.09-8.86,7.09-13.64V288.38Z" transform="translate(-175.29 -286.76)" style="fill:#fff"/><path d="M176.31,289.13v17.31c0,10.11,11.57,16.53,13.32,17.44,1.76-.91,13.33-7.34,13.33-17.44V289.13a53.52,53.52,0,0,0-13.33-1.35A53.48,53.48,0,0,0,176.31,289.13Z" transform="translate(-175.29 -286.76)" style="fill:none"/><path d="M203.63,288.27c-.19-.06-4.71-1.51-14-1.51s-13.8,1.45-14,1.51l-.35.11v18.06c0,4.78,2.45,9.5,7.09,13.64a34.18,34.18,0,0,0,7,4.83l.22.11.23-.11a34.18,34.18,0,0,0,7-4.83c4.64-4.14,7.09-8.86,7.09-13.64V288.38ZM203,306.44c0,10.1-11.57,16.53-13.33,17.44-1.75-.91-13.32-7.33-13.32-17.44V289.13a53.48,53.48,0,0,1,13.32-1.35A53.52,53.52,0,0,1,203,289.13Z" transform="translate(-175.29 -286.76)" style="fill:#878787"/><path d="M177.93,290.44l10.82,10.82V289.38A51.91,51.91,0,0,0,177.93,290.44Z" transform="translate(-175.29 -286.76)" style="fill:#14822c"/><path d="M177.92,300.38v6c0,7.66,7.62,13,10.83,14.92V311.22Z" transform="translate(-175.29 -286.76)" style="fill:#c40d0e"/><path d="M190.58,304.55l8.51,8.64c.2-.31.38-.63.56-1L190.58,303Z" transform="translate(-175.29 -286.76)" style="fill:#878787"/><path d="M190.58,298,201,308.55c.09-.43.15-.87.2-1.33l-10.63-10.78Z" transform="translate(-175.29 -286.76)" style="fill:#878787"/><polygon points="15.28 4.62 25.98 15.47 25.98 13.94 15.28 3.09 15.28 4.62" style="fill:#878787"/><path d="M201.26,294.33l-4.53-4.6-1.66-.16,6.19,6.29Z" transform="translate(-175.29 -286.76)" style="fill:#878787"/><path d="M190.58,311.13l5.58,5.67c.25-.25.5-.5.75-.77l-6.33-6.43Z" transform="translate(-175.29 -286.76)" style="fill:#878787"/><path d="M190.58,317.72l2,2.07c.29-.21.58-.42.87-.65l-2.9-2.95Z" transform="translate(-175.29 -286.76)" style="fill:#878787"/></svg>