<?xml version="1.0" encoding="UTF-8" standalone="no"?><!DOCTYPE svg PUBLIC "-//W3C//DTD SVG 1.1//EN" "http://www.w3.org/Graphics/SVG/1.1/DTD/svg11.dtd"><svg width="967px" height="96px" version="1.1" xmlns="http://www.w3.org/2000/svg" xmlns:xlink="http://www.w3.org/1999/xlink" xml:space="preserve" xmlns:serif="http://www.serif.com/" style="fill-rule:evenodd;clip-rule:evenodd;stroke-linejoin:round;stroke-miterlimit:2;"><g transform="matrix(1,0,0,1,-388.994,-497.562)"><g transform="matrix(134,0,0,134,385.51,592.434)"><path d="M0.299,-0C0.29,-0 0.285,-0.004 0.283,-0.013L0.222,-0.264C0.221,-0.267 0.219,-0.269 0.218,-0.269C0.215,-0.269 0.214,-0.267 0.214,-0.263L0.214,-0.015C0.214,-0.01 0.213,-0.007 0.21,-0.004C0.207,-0.001 0.204,-0 0.199,-0L0.041,-0C0.036,-0 0.033,-0.001 0.03,-0.004C0.027,-0.007 0.026,-0.01 0.026,-0.015L0.026,-0.685C0.026,-0.69 0.027,-0.693 0.03,-0.696C0.033,-0.699 0.036,-0.7 0.041,-0.7L0.266,-0.7C0.306,-0.7 0.341,-0.691 0.373,-0.672C0.403,-0.653 0.428,-0.626 0.445,-0.593C0.462,-0.559 0.471,-0.52 0.471,-0.477C0.471,-0.44 0.465,-0.407 0.452,-0.379C0.439,-0.349 0.421,-0.326 0.397,-0.308C0.394,-0.306 0.393,-0.303 0.394,-0.3L0.475,-0.017C0.476,-0.016 0.476,-0.014 0.476,-0.012C0.476,-0.004 0.471,-0 0.462,-0L0.299,-0ZM0.22,-0.539C0.216,-0.539 0.214,-0.537 0.214,-0.533L0.214,-0.418C0.214,-0.414 0.216,-0.412 0.22,-0.412L0.233,-0.412C0.248,-0.412 0.26,-0.418 0.269,-0.429C0.278,-0.44 0.283,-0.455 0.283,-0.475C0.283,-0.496 0.279,-0.511 0.27,-0.523C0.261,-0.534 0.248,-0.539 0.233,-0.539L0.22,-0.539Z" style="fill:#ff7300;fill-rule:nonzero;"/></g><g transform="matrix(134,0,0,134,451.17,592.434)"><path d="M0.242,0.008C0.175,0.008 0.121,-0.011 0.081,-0.05C0.04,-0.089 0.02,-0.141 0.02,-0.206L0.02,-0.494C0.02,-0.559 0.04,-0.611 0.081,-0.65C0.121,-0.689 0.175,-0.708 0.242,-0.708C0.309,-0.708 0.363,-0.689 0.404,-0.65C0.444,-0.611 0.464,-0.559 0.464,-0.494L0.464,-0.206C0.464,-0.141 0.444,-0.089 0.404,-0.05C0.363,-0.011 0.309,0.008 0.242,0.008ZM0.242,-0.153C0.253,-0.153 0.261,-0.157 0.267,-0.165C0.273,-0.173 0.276,-0.184 0.276,-0.198L0.276,-0.502C0.276,-0.516 0.273,-0.527 0.267,-0.535C0.261,-0.543 0.253,-0.547 0.242,-0.547C0.231,-0.547 0.223,-0.543 0.217,-0.535C0.211,-0.527 0.208,-0.516 0.208,-0.502L0.208,-0.198C0.208,-0.184 0.211,-0.173 0.217,-0.165C0.223,-0.157 0.231,-0.153 0.242,-0.153Z" style="fill:#ff7300;fill-rule:nonzero;"/></g><g transform="matrix(134,0,0,134,516.026,592.434)"><path d="M0.235,0.008C0.192,0.008 0.155,0 0.123,-0.016C0.091,-0.032 0.066,-0.054 0.049,-0.083C0.031,-0.111 0.022,-0.143 0.022,-0.18L0.022,-0.211C0.022,-0.216 0.023,-0.219 0.026,-0.222C0.029,-0.225 0.032,-0.226 0.037,-0.226L0.193,-0.226C0.198,-0.226 0.201,-0.225 0.204,-0.222C0.207,-0.219 0.208,-0.216 0.208,-0.211L0.208,-0.189C0.208,-0.178 0.211,-0.17 0.216,-0.163C0.221,-0.156 0.228,-0.153 0.236,-0.153C0.244,-0.153 0.251,-0.156 0.256,-0.162C0.261,-0.168 0.264,-0.176 0.264,-0.185C0.264,-0.196 0.259,-0.208 0.248,-0.219C0.237,-0.23 0.215,-0.247 0.181,-0.271C0.148,-0.294 0.12,-0.316 0.099,-0.335C0.077,-0.354 0.058,-0.379 0.042,-0.408C0.026,-0.437 0.018,-0.471 0.018,-0.509C0.018,-0.548 0.027,-0.583 0.045,-0.613C0.062,-0.643 0.087,-0.666 0.12,-0.683C0.152,-0.7 0.189,-0.708 0.231,-0.708C0.274,-0.708 0.311,-0.7 0.344,-0.683C0.376,-0.666 0.401,-0.643 0.419,-0.613C0.436,-0.583 0.445,-0.548 0.445,-0.509L0.445,-0.487C0.445,-0.482 0.444,-0.479 0.441,-0.476C0.438,-0.473 0.435,-0.472 0.43,-0.472L0.275,-0.472C0.27,-0.472 0.267,-0.473 0.264,-0.476C0.261,-0.479 0.26,-0.482 0.26,-0.487L0.26,-0.513C0.26,-0.523 0.257,-0.531 0.252,-0.538C0.247,-0.544 0.24,-0.547 0.231,-0.547C0.222,-0.547 0.216,-0.544 0.211,-0.537C0.206,-0.53 0.203,-0.521 0.203,-0.51C0.203,-0.497 0.208,-0.484 0.219,-0.472C0.23,-0.459 0.251,-0.441 0.283,-0.418C0.326,-0.387 0.358,-0.361 0.38,-0.342C0.401,-0.323 0.418,-0.301 0.431,-0.277C0.443,-0.252 0.449,-0.224 0.449,-0.191C0.449,-0.13 0.429,-0.082 0.39,-0.046C0.351,-0.01 0.299,0.008 0.235,0.008Z" style="fill:#ff7300;fill-rule:nonzero;"/></g><g transform="matrix(134,0,0,134,578.068,592.434)"><path d="M0.041,-0C0.036,-0 0.033,-0.001 0.03,-0.004C0.027,-0.007 0.026,-0.01 0.026,-0.015L0.026,-0.685C0.026,-0.69 0.027,-0.693 0.03,-0.696C0.033,-0.699 0.036,-0.7 0.041,-0.7L0.199,-0.7C0.204,-0.7 0.207,-0.699 0.21,-0.696C0.213,-0.693 0.214,-0.69 0.214,-0.685L0.214,-0.487C0.214,-0.484 0.215,-0.483 0.217,-0.483C0.218,-0.482 0.22,-0.483 0.221,-0.486L0.305,-0.688C0.308,-0.696 0.314,-0.7 0.323,-0.7L0.488,-0.7C0.493,-0.7 0.497,-0.698 0.5,-0.695C0.503,-0.692 0.503,-0.687 0.5,-0.682L0.359,-0.387C0.358,-0.384 0.358,-0.382 0.359,-0.379L0.504,-0.017C0.505,-0.015 0.505,-0.013 0.505,-0.01C0.505,-0.003 0.501,-0 0.492,-0L0.326,-0C0.317,-0 0.311,-0.004 0.308,-0.012L0.231,-0.217C0.23,-0.22 0.229,-0.222 0.228,-0.222C0.226,-0.222 0.224,-0.22 0.223,-0.217L0.215,-0.197C0.214,-0.196 0.214,-0.193 0.214,-0.189L0.214,-0.015C0.214,-0.01 0.213,-0.007 0.21,-0.004C0.207,-0.001 0.204,-0 0.199,-0L0.041,-0Z" style="fill:#ff7300;fill-rule:nonzero;"/></g><g transform="matrix(134,0,0,134,647.346,592.434)"><path d="M0.041,-0C0.036,-0 0.033,-0.001 0.03,-0.004C0.027,-0.007 0.026,-0.01 0.026,-0.015L0.026,-0.685C0.026,-0.69 0.027,-0.693 0.03,-0.696C0.033,-0.699 0.036,-0.7 0.041,-0.7L0.199,-0.7C0.204,-0.7 0.207,-0.699 0.21,-0.696C0.213,-0.693 0.214,-0.69 0.214,-0.685L0.214,-0.015C0.214,-0.01 0.213,-0.007 0.21,-0.004C0.207,-0.001 0.204,-0 0.199,-0L0.041,-0Z" style="fill:#ff7300;fill-rule:nonzero;"/></g><g transform="matrix(134,0,0,134,679.506,592.434)"><path d="M0.041,-0C0.036,-0 0.033,-0.001 0.03,-0.004C0.027,-0.007 0.026,-0.01 0.026,-0.015L0.026,-0.685C0.026,-0.69 0.027,-0.693 0.03,-0.696C0.033,-0.699 0.036,-0.7 0.041,-0.7L0.199,-0.7C0.204,-0.7 0.207,-0.699 0.21,-0.696C0.213,-0.693 0.214,-0.69 0.214,-0.685L0.214,-0.167C0.214,-0.163 0.216,-0.161 0.22,-0.161L0.415,-0.161C0.42,-0.161 0.423,-0.16 0.426,-0.157C0.429,-0.154 0.43,-0.151 0.43,-0.146L0.43,-0.015C0.43,-0.01 0.429,-0.007 0.426,-0.004C0.423,-0.001 0.42,-0 0.415,-0L0.041,-0Z" style="fill:#ff7300;fill-rule:nonzero;"/></g><g transform="matrix(134,0,0,134,739.27,592.434)"><path d="M0.041,-0C0.036,-0 0.033,-0.001 0.03,-0.004C0.027,-0.007 0.026,-0.01 0.026,-0.015L0.026,-0.685C0.026,-0.69 0.027,-0.693 0.03,-0.696C0.033,-0.699 0.036,-0.7 0.041,-0.7L0.238,-0.7C0.282,-0.7 0.321,-0.692 0.355,-0.675C0.388,-0.658 0.414,-0.635 0.433,-0.605C0.452,-0.574 0.461,-0.539 0.461,-0.5L0.461,-0.2C0.461,-0.161 0.452,-0.126 0.433,-0.096C0.414,-0.065 0.388,-0.042 0.355,-0.025C0.321,-0.008 0.282,-0 0.238,-0L0.041,-0ZM0.214,-0.167C0.214,-0.163 0.216,-0.161 0.22,-0.161L0.234,-0.162C0.245,-0.163 0.254,-0.168 0.261,-0.177C0.268,-0.186 0.272,-0.198 0.273,-0.213L0.273,-0.488C0.273,-0.503 0.269,-0.516 0.262,-0.525C0.255,-0.534 0.245,-0.539 0.233,-0.539L0.22,-0.539C0.216,-0.539 0.214,-0.537 0.214,-0.533L0.214,-0.167Z" style="fill:#ff7300;fill-rule:nonzero;"/></g><g transform="matrix(134,0,0,134,803.992,592.434)"><path d="M0.426,-0.554C0.426,-0.549 0.425,-0.546 0.422,-0.543C0.419,-0.54 0.416,-0.539 0.411,-0.539L0.22,-0.539C0.216,-0.539 0.214,-0.537 0.214,-0.533L0.214,-0.437C0.214,-0.433 0.216,-0.431 0.22,-0.431L0.319,-0.431C0.324,-0.431 0.327,-0.43 0.33,-0.427C0.333,-0.424 0.334,-0.421 0.334,-0.416L0.334,-0.285C0.334,-0.28 0.333,-0.277 0.33,-0.274C0.327,-0.271 0.324,-0.27 0.319,-0.27L0.22,-0.27C0.216,-0.27 0.214,-0.268 0.214,-0.264L0.214,-0.167C0.214,-0.163 0.216,-0.161 0.22,-0.161L0.411,-0.161C0.416,-0.161 0.419,-0.16 0.422,-0.157C0.425,-0.154 0.426,-0.151 0.426,-0.146L0.426,-0.015C0.426,-0.01 0.425,-0.007 0.422,-0.004C0.419,-0.001 0.416,-0 0.411,-0L0.041,-0C0.036,-0 0.033,-0.001 0.03,-0.004C0.027,-0.007 0.026,-0.01 0.026,-0.015L0.026,-0.685C0.026,-0.69 0.027,-0.693 0.03,-0.696C0.033,-0.699 0.036,-0.7 0.041,-0.7L0.411,-0.7C0.416,-0.7 0.419,-0.699 0.422,-0.696C0.425,-0.693 0.426,-0.69 0.426,-0.685L0.426,-0.554Z" style="fill:#ff7300;fill-rule:nonzero;"/></g><g transform="matrix(134,0,0,134,890.288,592.434)"><path d="M0.426,-0.554C0.426,-0.549 0.425,-0.546 0.422,-0.543C0.419,-0.54 0.416,-0.539 0.411,-0.539L0.22,-0.539C0.216,-0.539 0.214,-0.537 0.214,-0.533L0.214,-0.437C0.214,-0.433 0.216,-0.431 0.22,-0.431L0.319,-0.431C0.324,-0.431 0.327,-0.43 0.33,-0.427C0.333,-0.424 0.334,-0.421 0.334,-0.416L0.334,-0.285C0.334,-0.28 0.333,-0.277 0.33,-0.274C0.327,-0.271 0.324,-0.27 0.319,-0.27L0.22,-0.27C0.216,-0.27 0.214,-0.268 0.214,-0.264L0.214,-0.015C0.214,-0.01 0.213,-0.007 0.21,-0.004C0.207,-0.001 0.204,-0 0.199,-0L0.041,-0C0.036,-0 0.033,-0.001 0.03,-0.004C0.027,-0.007 0.026,-0.01 0.026,-0.015L0.026,-0.685C0.026,-0.69 0.027,-0.693 0.03,-0.696C0.033,-0.699 0.036,-0.7 0.041,-0.7L0.411,-0.7C0.416,-0.7 0.419,-0.699 0.422,-0.696C0.425,-0.693 0.426,-0.69 0.426,-0.685L0.426,-0.554Z" style="fill:#ff7300;fill-rule:nonzero;"/></g><g transform="matrix(134,0,0,134,948.176,592.434)"><path d="M0.426,-0.554C0.426,-0.549 0.425,-0.546 0.422,-0.543C0.419,-0.54 0.416,-0.539 0.411,-0.539L0.22,-0.539C0.216,-0.539 0.214,-0.537 0.214,-0.533L0.214,-0.437C0.214,-0.433 0.216,-0.431 0.22,-0.431L0.319,-0.431C0.324,-0.431 0.327,-0.43 0.33,-0.427C0.333,-0.424 0.334,-0.421 0.334,-0.416L0.334,-0.285C0.334,-0.28 0.333,-0.277 0.33,-0.274C0.327,-0.271 0.324,-0.27 0.319,-0.27L0.22,-0.27C0.216,-0.27 0.214,-0.268 0.214,-0.264L0.214,-0.167C0.214,-0.163 0.216,-0.161 0.22,-0.161L0.411,-0.161C0.416,-0.161 0.419,-0.16 0.422,-0.157C0.425,-0.154 0.426,-0.151 0.426,-0.146L0.426,-0.015C0.426,-0.01 0.425,-0.007 0.422,-0.004C0.419,-0.001 0.416,-0 0.411,-0L0.041,-0C0.036,-0 0.033,-0.001 0.03,-0.004C0.027,-0.007 0.026,-0.01 0.026,-0.015L0.026,-0.685C0.026,-0.69 0.027,-0.693 0.03,-0.696C0.033,-0.699 0.036,-0.7 0.041,-0.7L0.411,-0.7C0.416,-0.7 0.419,-0.699 0.422,-0.696C0.425,-0.693 0.426,-0.69 0.426,-0.685L0.426,-0.554Z" style="fill:#ff7300;fill-rule:nonzero;"/></g><g transform="matrix(134,0,0,134,1007.67,592.434)"><path d="M0.235,0.008C0.192,0.008 0.155,0 0.123,-0.016C0.091,-0.032 0.066,-0.054 0.049,-0.083C0.031,-0.111 0.022,-0.143 0.022,-0.18L0.022,-0.211C0.022,-0.216 0.023,-0.219 0.026,-0.222C0.029,-0.225 0.032,-0.226 0.037,-0.226L0.193,-0.226C0.198,-0.226 0.201,-0.225 0.204,-0.222C0.207,-0.219 0.208,-0.216 0.208,-0.211L0.208,-0.189C0.208,-0.178 0.211,-0.17 0.216,-0.163C0.221,-0.156 0.228,-0.153 0.236,-0.153C0.244,-0.153 0.251,-0.156 0.256,-0.162C0.261,-0.168 0.264,-0.176 0.264,-0.185C0.264,-0.196 0.259,-0.208 0.248,-0.219C0.237,-0.23 0.215,-0.247 0.181,-0.271C0.148,-0.294 0.12,-0.316 0.099,-0.335C0.077,-0.354 0.058,-0.379 0.042,-0.408C0.026,-0.437 0.018,-0.471 0.018,-0.509C0.018,-0.548 0.027,-0.583 0.045,-0.613C0.062,-0.643 0.087,-0.666 0.12,-0.683C0.152,-0.7 0.189,-0.708 0.231,-0.708C0.274,-0.708 0.311,-0.7 0.344,-0.683C0.376,-0.666 0.401,-0.643 0.419,-0.613C0.436,-0.583 0.445,-0.548 0.445,-0.509L0.445,-0.487C0.445,-0.482 0.444,-0.479 0.441,-0.476C0.438,-0.473 0.435,-0.472 0.43,-0.472L0.275,-0.472C0.27,-0.472 0.267,-0.473 0.264,-0.476C0.261,-0.479 0.26,-0.482 0.26,-0.487L0.26,-0.513C0.26,-0.523 0.257,-0.531 0.252,-0.538C0.247,-0.544 0.24,-0.547 0.231,-0.547C0.222,-0.547 0.216,-0.544 0.211,-0.537C0.206,-0.53 0.203,-0.521 0.203,-0.51C0.203,-0.497 0.208,-0.484 0.219,-0.472C0.23,-0.459 0.251,-0.441 0.283,-0.418C0.326,-0.387 0.358,-0.361 0.38,-0.342C0.401,-0.323 0.418,-0.301 0.431,-0.277C0.443,-0.252 0.449,-0.224 0.449,-0.191C0.449,-0.13 0.429,-0.082 0.39,-0.046C0.351,-0.01 0.299,0.008 0.235,0.008Z" style="fill:#ff7300;fill-rule:nonzero;"/></g><g transform="matrix(134,0,0,134,1069.71,592.434)"><path d="M0.466,-0.7C0.471,-0.7 0.474,-0.699 0.477,-0.696C0.48,-0.693 0.481,-0.69 0.481,-0.685L0.481,-0.554C0.481,-0.549 0.48,-0.546 0.477,-0.543C0.474,-0.54 0.471,-0.539 0.466,-0.539L0.348,-0.539C0.344,-0.539 0.342,-0.537 0.342,-0.533L0.342,-0.015C0.342,-0.01 0.341,-0.007 0.338,-0.004C0.335,-0.001 0.332,-0 0.327,-0L0.169,-0C0.164,-0 0.161,-0.001 0.158,-0.004C0.155,-0.007 0.154,-0.01 0.154,-0.015L0.154,-0.533C0.154,-0.537 0.152,-0.539 0.148,-0.539L0.033,-0.539C0.028,-0.539 0.025,-0.54 0.022,-0.543C0.019,-0.546 0.018,-0.549 0.018,-0.554L0.018,-0.685C0.018,-0.69 0.019,-0.693 0.022,-0.696C0.025,-0.699 0.028,-0.7 0.033,-0.7L0.466,-0.7Z" style="fill:#ff7300;fill-rule:nonzero;"/></g><g transform="matrix(134,0,0,134,1136.58,592.434)"><path d="M0.041,-0C0.036,-0 0.033,-0.001 0.03,-0.004C0.027,-0.007 0.026,-0.01 0.026,-0.015L0.026,-0.685C0.026,-0.69 0.027,-0.693 0.03,-0.696C0.033,-0.699 0.036,-0.7 0.041,-0.7L0.199,-0.7C0.204,-0.7 0.207,-0.699 0.21,-0.696C0.213,-0.693 0.214,-0.69 0.214,-0.685L0.214,-0.015C0.214,-0.01 0.213,-0.007 0.21,-0.004C0.207,-0.001 0.204,-0 0.199,-0L0.041,-0Z" style="fill:#ff7300;fill-rule:nonzero;"/></g><g transform="matrix(134,0,0,134,1168.74,592.434)"><path d="M0.172,-0C0.163,-0 0.157,-0.004 0.155,-0.013L0.015,-0.684L0.015,-0.688C0.015,-0.696 0.02,-0.7 0.029,-0.7L0.201,-0.7C0.211,-0.7 0.216,-0.695 0.217,-0.686L0.262,-0.332C0.262,-0.33 0.263,-0.329 0.265,-0.329C0.267,-0.329 0.268,-0.33 0.268,-0.332L0.309,-0.686C0.31,-0.695 0.315,-0.7 0.325,-0.7L0.492,-0.7C0.503,-0.7 0.508,-0.695 0.506,-0.684L0.364,-0.013C0.362,-0.004 0.356,-0 0.347,-0L0.172,-0Z" style="fill:#ff7300;fill-rule:nonzero;"/></g><g transform="matrix(134,0,0,134,1226.36,592.434)"><path d="M0.341,-0C0.331,-0 0.326,-0.005 0.325,-0.014L0.314,-0.089C0.314,-0.09 0.313,-0.092 0.312,-0.093C0.311,-0.094 0.309,-0.095 0.307,-0.095L0.219,-0.095C0.217,-0.095 0.215,-0.094 0.214,-0.093C0.213,-0.092 0.212,-0.09 0.212,-0.089L0.202,-0.014C0.201,-0.005 0.196,-0 0.186,-0L0.029,-0C0.018,-0 0.014,-0.005 0.016,-0.016L0.158,-0.687C0.16,-0.696 0.166,-0.7 0.175,-0.7L0.357,-0.7C0.366,-0.7 0.372,-0.696 0.374,-0.687L0.516,-0.016L0.516,-0.012C0.516,-0.004 0.511,-0 0.502,-0L0.341,-0ZM0.234,-0.245C0.234,-0.241 0.236,-0.239 0.239,-0.239L0.286,-0.239C0.291,-0.239 0.292,-0.241 0.291,-0.245L0.264,-0.425C0.263,-0.428 0.262,-0.429 0.261,-0.429C0.26,-0.429 0.259,-0.428 0.258,-0.425L0.234,-0.245Z" style="fill:#ff7300;fill-rule:nonzero;"/></g><g transform="matrix(134,0,0,134,1297.51,592.434)"><path d="M0.041,-0C0.036,-0 0.033,-0.001 0.03,-0.004C0.027,-0.007 0.026,-0.01 0.026,-0.015L0.026,-0.685C0.026,-0.69 0.027,-0.693 0.03,-0.696C0.033,-0.699 0.036,-0.7 0.041,-0.7L0.199,-0.7C0.204,-0.7 0.207,-0.699 0.21,-0.696C0.213,-0.693 0.214,-0.69 0.214,-0.685L0.214,-0.167C0.214,-0.163 0.216,-0.161 0.22,-0.161L0.415,-0.161C0.42,-0.161 0.423,-0.16 0.426,-0.157C0.429,-0.154 0.43,-0.151 0.43,-0.146L0.43,-0.015C0.43,-0.01 0.429,-0.007 0.426,-0.004C0.423,-0.001 0.42,-0 0.415,-0L0.041,-0Z" style="fill:#ff7300;fill-rule:nonzero;"/></g></g></svg>